<svg xmlns="http://www.w3.org/2000/svg" viewBox="0 0 239.36 239.43"><defs><style>.cls-1{fill:#913189;}</style></defs><g id="Capa_2" data-name="Capa 2"><g id="Capa_1-2" data-name="Capa 1"><rect class="cls-1" x="73.18" y="88.42" width="11.56" height="10.93"/><path class="cls-1" d="M0,119.67C-.33,53.8,53.72.31,119,0c66.52-.32,120.67,53.88,120.39,120.2A119.83,119.83,0,0,1,118.88,239.43C53.6,239.11-.32,185.74,0,119.67ZM117.87,9.13A110.61,110.61,0,1,0,230.22,117.07,110.69,110.69,0,0,0,117.87,9.13Z"/><path class="cls-1" d="M128,174.11a29.75,29.75,0,1,1,30.14,29.8A29.7,29.7,0,0,1,128,174.11Zm9.57,1a2.81,2.81,0,0,0,.79,2.24c.59.57,1.16,1.18,1.79,1.72,1.92,1.67,3.92,3.27,5.79,5,2.5,2.28,5.19,4.35,7.64,6.68a3,3,0,0,0,4.35-.57q4.48-6,8.85-12c2.95-4.08,5.88-8.18,8.93-12.19,1-1.35,2.22-2.65,2.51-4.44a3.68,3.68,0,0,0-6.79-2.46,15.24,15.24,0,0,1-1,1.57l-7.2,9.87-4.48,6.08c-.83,1.12-1.71,2.21-2.46,3.38a2,2,0,0,1-2.7.83,8.45,8.45,0,0,1-1.85-1.62c-2.64-2.32-5.43-4.47-8-6.88a3.26,3.26,0,0,0-4.13-.6A3.42,3.42,0,0,0,137.6,175.1Z"/><path class="cls-1" d="M51.84,123.68q0-32.15,0-64.29a4.89,4.89,0,0,1,4.89-5c6.25,0,12.5,0,18.74,0,.81,0,1.1.25.94,1.16A38.23,38.23,0,0,0,76.27,61c0,.93,0,1.86,0,2.79,0,.58-.23.81-.86.77-3.68-.27-7.37-.13-11.05-.09A2.33,2.33,0,0,0,61.94,67q0,17.68,0,35.38,0,30.3,0,60.6,0,8.08,0,16.15c0,2.6.92,3.54,3.54,3.54h58.4c2.13,0,2.11,0,2.77,2.06a21.88,21.88,0,0,0,3.49,7.1c.18.22.34.46.24.72s-.46.17-.71.17H57.07A5.45,5.45,0,0,1,53,191.06a4.8,4.8,0,0,1-1.14-3.3c.06-5.78,0-11.56,0-17.34V123.68Z"/><path class="cls-1" d="M104.38,69.88H80.8c-.76,0-1.06-.27-1.06-1q0-9.42,0-18.84c0-.92.39-1.1,1.2-1.1,4.15,0,8.3,0,12.45,0,2.74,0,2.73,0,3.26-2.66a13.14,13.14,0,0,1,5.85-9.1,10.66,10.66,0,0,1,5.21-1.48,37.07,37.07,0,0,1,8.74.28,10.31,10.31,0,0,1,6.61,4.24,14.17,14.17,0,0,1,2.68,7c.18,1.57.22,1.57,1.86,1.57,4.58,0,9.17,0,13.75,0,.92,0,1.11.27,1.11,1.12,0,6,0,12,0,18,0,2,0,2-2.05,2-5.45,0-10.9-.11-16.34-.06C116.64,69.91,109.23,69.79,104.38,69.88ZM117.24,49a6.15,6.15,0,1,0-12.29.18c-.06,2.7,3,5.82,5.7,6A6.36,6.36,0,0,0,117.24,49Z"/><path class="cls-1" d="M170.36,100.83v40.84c0,.36,0,.73,0,1.09,0,.64-.32.73-.85.5a24.57,24.57,0,0,0-8.19-1.93c-.77,0-1-.46-1-1.17,0-2.33,0-4.65,0-7,0-21.75,0-43.5,0-65.25,0-3.07-1.56-3.57-3.69-3.55-3.22,0-6.45,0-9.67,0-.8,0-1.09-.19-1.09-1,0-2.69.15-5.38-.08-8.07-.06-.67.27-1,.94-1,6.31,0,12.62,0,18.93,0a5,5,0,0,1,4.69,5.13C170.33,73.26,170.36,87,170.36,100.83Z"/><path class="cls-1" d="M116.55,165.68c-1.26,0-2.52,0-3.79,0a2.19,2.19,0,0,1-2.05-1.31c-.86-1.6-1.78-3.17-2.66-4.75-.17-.3-.34-.63-.71-.64s-.44.43-.59.7l-4.42,8.24c-.76,1.43-1.54,2.85-2.3,4.29a2,2,0,0,1-2.29,1.15,2.17,2.17,0,0,1-1.73-1.8c-.39-1.41-.94-2.77-1.43-4.14q-2.08-5.82-4.19-11.62c-.12-.33-.16-.8-.58-.86s-.63.4-.83.73q-2.61,4.31-5.18,8.62a2.08,2.08,0,0,1-1.88,1.1c-2.56,0-5.12,0-7.67,0-1,0-1.06-.64-1.07-1.39s.06-1.3,1-1.27c1.76,0,3.52,0,5.28,0a2,2,0,0,0,2-1.14c2-3.68,4.37-7.19,6.38-10.9a3.41,3.41,0,0,1,1.36-1.55,2,2,0,0,1,2.76,1c.43,1,.76,2.06,1.13,3.09Q95.6,160,98,166.82c.08.24.1.58.41.62s.41-.3.54-.52q2.22-4.17,4.45-8.35c.69-1.29,1.38-2.57,2-3.88a1.73,1.73,0,0,1,1.68-1.17,2.26,2.26,0,0,1,2.13,1.19c1.29,2.4,2.65,4.75,3.94,7.15a2,2,0,0,0,2,1.16c1.72-.06,3.45,0,5.18-.08.93,0,1.13.44,1.09,1.24s.13,1.51-1,1.47-2.59,0-3.89,0Z"/><rect class="cls-1" x="86.8" y="91.98" width="51.94" height="1.28"/><rect class="cls-1" x="86.8" y="94.51" width="33.38" height="1.28"/><rect class="cls-1" x="73.18" y="106.29" width="11.56" height="10.93"/><rect class="cls-1" x="86.8" y="109.85" width="51.94" height="1.28"/><rect class="cls-1" x="86.8" y="112.38" width="33.38" height="1.28"/><rect class="cls-1" x="73.18" y="122.12" width="11.56" height="10.93"/><rect class="cls-1" x="86.8" y="125.68" width="51.94" height="1.28"/><rect class="cls-1" x="86.8" y="128.21" width="33.38" height="1.28"/></g></g></svg>