<svg xmlns="http://www.w3.org/2000/svg" viewBox="0 0 239.36 239.43"><defs><style>.cls-1{fill:#913189;}</style></defs><g id="Capa_2" data-name="Capa 2"><g id="Capa_1-2" data-name="Capa 1"><path class="cls-1" d="M169.64,156.59v-2q0-41.52,0-83.06a11.06,11.06,0,0,0-4.46-9.44,10.9,10.9,0,0,0-6.73-2.37H77.05a11.41,11.41,0,0,0-11.27,11.2q0,37.13,0,74.26c0,9.08.15,18.17,0,27.26a11.87,11.87,0,0,0,12.32,12.15c10.37-.09,20.74,0,31.11-.05,1.22,0,16.81-.33,17.32.76,1.93,4.14,4.13,5.95,7.57,8.81a34,34,0,0,0,12.22,5.63c-.75,0-23,0-23.44,0q-28.38,0-56.76,0a15.1,15.1,0,0,1-15.19-15.15q0-29.19,0-58.36,0-33.15,0-66.3c0-7.81,4.76-13.51,12.49-14.89a14,14,0,0,1,2.43-.09H169.26c7.7,0,13.58,4.75,15.07,12.22a19.38,19.38,0,0,1,.26,3.81q0,38.4,0,76.81c0,.81.92,20.8.4,20.18-3.13-3.66-10.21-7.21-14.7-1.93C170.16,156.13,170,156.24,169.64,156.59Z"/><path class="cls-1" d="M148.64,103.51c.87,1,1.65,1.79,2.38,2.65a3.19,3.19,0,0,1,.13,4.35c-1.14,1.46-2.32,2.89-3.58,4.24a3.37,3.37,0,0,1-4.64.49c-1-.6-1.88-1.24-2.72-1.8-1.64.83-3.11,1.7-4.69,2.32a1.6,1.6,0,0,0-1.16,1.67c0,.8,0,1.6-.06,2.41a3.23,3.23,0,0,1-3,3.19c-1.65.18-3.31.37-5,.52A3.7,3.7,0,0,1,122,120.4a1.33,1.33,0,0,1,0-.28c0-2.2-1.1-3.06-3.3-3.82-2.44-.84-3.83-.46-5.46,1.26s-3.36,1.61-5.16.06c-1.15-1-2.36-1.91-3.49-2.91-1.79-1.59-2.1-3.08-.63-5s1.63-3.33.36-5.56a4.08,4.08,0,0,0-4.09-2.45c-2.9,0-3.76-.83-4.15-3.7-.2-1.49-.37-3-.44-4.5-.11-2.11.87-3.57,3-3.8,2.47-.27,3.34-1.38,4.08-3.76s.42-3.63-1.25-5.19-1.58-3.17-.16-4.91c1-1.29,2.11-2.56,3.22-3.79,1.42-1.57,3.16-1.9,4.81-.54s3.33,1.64,5,.07a1,1,0,0,1,.49-.29c2.67-.5,3.22-2.31,3.17-4.69a2.92,2.92,0,0,1,2.7-3c1.79-.24,3.59-.44,5.4-.56,2.38-.15,3.82,1,4.16,3.69.21,1.61.72,2.56,2.49,2.69a5.36,5.36,0,0,1,2.41.78c1.35.84,2.21.34,3.21-.62,2.47-2.38,3.79-2.35,6.36-.11.93.81,1.9,1.56,2.86,2.34,1.65,1.36,2.08,3.31.73,5S147,79.79,148,81.78c1.16,2.45,2.47,3.52,5.19,3.24,1.47-.15,2.79,1.39,2.94,2.92.18,1.78.36,3.56.51,5.35s-.87,3.42-2.58,3.54c-3,.22-4.15,1.77-4.54,4.42A10.91,10.91,0,0,1,148.64,103.51Zm-22.41.26a10.7,10.7,0,1,0-.52-21.39,11,11,0,0,0-10.33,10.89A10.83,10.83,0,0,0,126.23,103.77Z"/><path class="cls-1" d="M89.26,157.17c-4.29,2.94-5,2.89-8.25-.54-2.22-2.35-2.1-3.53.68-7-.48-1.22-.91-2.46-1.49-3.64a1.74,1.74,0,0,0-1.13-.74c-1.54-.28-3.21-.28-4-2a5.51,5.51,0,0,1-.45-1.87c-.06-1,0-2,0-3A3.29,3.29,0,0,1,77.93,135c1.44-.05,2.45-.47,2.66-2a.62.62,0,0,1,.09-.27c1.29-1.76,1-3.24-.39-4.94a3.34,3.34,0,0,1,0-3.12A16.3,16.3,0,0,1,84.06,121a2.81,2.81,0,0,1,3.77.42,2.27,2.27,0,0,0,3.33.29,1.2,1.2,0,0,1,.51-.24c1.93-.39,3.17-1.23,3.16-3.5,0-1.22,1.71-2.3,3-2.33,1.15,0,2.3,0,3.44,0a3.34,3.34,0,0,1,3.44,3.25,2.21,2.21,0,0,0,2,2.44,2.06,2.06,0,0,1,.81.28c1.52,1.07,2.84,1.19,4.35-.24,1-1,2.8-.61,4,.49a31.6,31.6,0,0,1,2.3,2.33,3.22,3.22,0,0,1,.18,4.58,2.77,2.77,0,0,0-.46,3.34c.73,1.85,1.34,3.25,3.73,3.32,1.45,0,2.3,1.42,2.37,2.93,0,1.23,0,2.46,0,3.69a3.07,3.07,0,0,1-2.9,3.11c-1.71.14-2.86.69-3.09,2.51a.82.82,0,0,1-.15.39,2.59,2.59,0,0,0,.22,3.79c1.32,1.43,1.06,3.11-.26,4.59-.47.54-1,1-1.51,1.52-2.2,2.17-3.72,2.3-6.07.32-.82-.69-1.46-.93-2.33-.27a1.41,1.41,0,0,1-.52.22c-2.16.44-3.48,1.43-3.56,3.92a2.67,2.67,0,0,1-2.79,2.36,38.52,38.52,0,0,1-4.43-.06,3.24,3.24,0,0,1-2.68-3.05c0-1.73-.51-2.81-2.35-3.18A11.16,11.16,0,0,1,89.26,157.17Zm10.26-25.95a8.69,8.69,0,1,0,8.7,8.75A8.64,8.64,0,0,0,99.52,131.22Z"/><path class="cls-1" d="M0,119.67C-.33,53.8,53.72.31,119,0c66.52-.32,120.67,53.88,120.39,120.2A119.83,119.83,0,0,1,118.88,239.43C53.6,239.11-.32,185.74,0,119.67ZM117.87,9.13A110.61,110.61,0,1,0,230.22,117.07,110.69,110.69,0,0,0,117.87,9.13Z"/><path class="cls-1" d="M129.7,171.15A29.75,29.75,0,1,1,159.85,201,29.73,29.73,0,0,1,129.7,171.15Zm9.58,1a2.82,2.82,0,0,0,.78,2.23c.6.57,1.17,1.18,1.79,1.72,1.93,1.67,3.92,3.27,5.8,5,2.5,2.28,5.18,4.35,7.63,6.68a3,3,0,0,0,4.36-.57q4.47-6,8.84-12c3-4.09,5.89-8.18,8.94-12.19,1-1.36,2.21-2.66,2.51-4.45a3.5,3.5,0,0,0-2.42-4,3.53,3.53,0,0,0-4.38,1.58,13.89,13.89,0,0,1-1,1.58q-3.59,4.93-7.2,9.86c-1.48,2-3,4.06-4.48,6.09-.82,1.12-1.7,2.2-2.45,3.37a2,2,0,0,1-2.7.83,8.22,8.22,0,0,1-1.85-1.62c-2.64-2.32-5.43-4.47-8-6.88a3.26,3.26,0,0,0-4.13-.6A3.42,3.42,0,0,0,139.28,172.15Z"/></g></g></svg>