<svg xmlns="http://www.w3.org/2000/svg" viewBox="0 0 239.36 239.43"><defs><style>.cls-1{fill:#913189;}</style></defs><g id="Capa_2" data-name="Capa 2"><g id="Capa_1-2" data-name="Capa 1"><path class="cls-1" d="M25.73,144.64a39.74,39.74,0,0,1,1-5.06,26,26,0,0,1,5.68-9.87,25.22,25.22,0,0,1,10.29-6.86,2,2,0,0,1,2.34.46,19.83,19.83,0,0,0,7.34,4.51,15.18,15.18,0,0,0,11.9-.92,26.06,26.06,0,0,0,5.34-3.72,1.74,1.74,0,0,1,1.92-.37,28,28,0,0,1,10.51,6.93c1.11,1.23,1.14,1.23.19,2.59a45,45,0,0,0-7.6,19.25,45.75,45.75,0,0,0-.45,6.51c0,.53-.12.68-.67.68-10.79,0-21.59,0-32.38,0a27.68,27.68,0,0,1-6.36-.32,12,12,0,0,1-8.94-9.63c0-.19-.08-.38-.12-.56Z"/><path class="cls-1" d="M212.46,148.66a12.34,12.34,0,0,1-2.85,6,11.08,11.08,0,0,1-8.42,4c-11.07.07-22.15,0-33.23,0-1,0-1.92,0-2.87,0s-1,0-1-1a44.52,44.52,0,0,0-1.73-12,43.71,43.71,0,0,0-6.85-14,.79.79,0,0,1,.06-1.17,25.58,25.58,0,0,1,11.23-7.7,1.88,1.88,0,0,1,2.07.57,19.16,19.16,0,0,0,8.17,4.75c5.32,1.47,10,0,14.29-3.19.79-.58,1.54-1.22,2.3-1.84a1.48,1.48,0,0,1,1.6-.27,27.26,27.26,0,0,1,10.4,6.72,25.62,25.62,0,0,1,6.76,14.37,3.88,3.88,0,0,0,.11.49Z"/><path class="cls-1" d="M150.59,117.73a11,11,0,0,1-1.41,5.67c-.4.77-.41.77-1.06.24a44.66,44.66,0,0,0-31.62-10.56A43.73,43.73,0,0,0,96.81,119a42.77,42.77,0,0,0-6.73,4.75c-.44.39-.67.32-1-.2a13.05,13.05,0,0,1-1.46-7.65,25.08,25.08,0,0,1,5.07-13.37,25.79,25.79,0,0,1,11.83-8.75,2.24,2.24,0,0,1,2.62.69,19.6,19.6,0,0,0,7.21,4.32,15.07,15.07,0,0,0,11.25-.71,23.54,23.54,0,0,0,5.75-3.88,2,2,0,0,1,2.29-.38,27.71,27.71,0,0,1,9.7,6.27,25.38,25.38,0,0,1,7.08,15C150.54,115.82,150.56,116.61,150.59,117.73Z"/><path class="cls-1" d="M59.12,77.33c.69.1,1.4.17,2.09.3a18.23,18.23,0,0,1,14.88,18.2,54.46,54.46,0,0,0,.93,10.5,29.39,29.39,0,0,0,3.88,10.18,13.07,13.07,0,0,1,.83,1.51c.32.71,0,1.21-.73,1.28-1.46.13-2.92.26-4.38.31-2.93.1-5.86.15-8.79.23a1,1,0,0,0-.43.14,18.44,18.44,0,0,1-10.82,2.65A17.9,17.9,0,0,1,47.85,120a.89.89,0,0,0-.43-.12c-3-.08-6-.13-8.94-.24-1.39,0-2.77-.17-4.15-.3-.85-.08-1.13-.58-.75-1.35s.79-1.41,1.2-2.1a29.3,29.3,0,0,0,3.42-9.26,58.74,58.74,0,0,0,1-11.31,17.56,17.56,0,0,1,4-11.13A17.92,17.92,0,0,1,54.78,77.5c.44-.07.88-.12,1.33-.17Z"/><path class="cls-1" d="M120,48.24c.7.1,1.4.16,2.09.3A18.18,18.18,0,0,1,137,66.74a54.28,54.28,0,0,0,.93,10.49,29.64,29.64,0,0,0,3.88,10.19,13.15,13.15,0,0,1,.84,1.51c.32.71,0,1.21-.74,1.27-1.46.14-2.92.26-4.38.32-2.93.1-5.86.15-8.79.23a.81.81,0,0,0-.42.14,18.46,18.46,0,0,1-10.82,2.65,17.9,17.9,0,0,1-8.73-2.67.82.82,0,0,0-.43-.12c-3-.08-6-.13-9-.24-1.38-.05-2.77-.17-4.15-.3-.85-.08-1.13-.58-.75-1.35s.79-1.41,1.2-2.1a29.28,29.28,0,0,0,3.43-9.27,60.26,60.26,0,0,0,1-11.3,17.61,17.61,0,0,1,4-11.13,18,18,0,0,1,11.61-6.65c.44-.07.89-.12,1.33-.17Z"/><path class="cls-1" d="M182.05,77.33c.69.1,1.4.17,2.09.3A18.23,18.23,0,0,1,199,95.83a54.46,54.46,0,0,0,.93,10.5,29.39,29.39,0,0,0,3.88,10.18,13.07,13.07,0,0,1,.83,1.51c.32.71,0,1.21-.73,1.28-1.46.13-2.92.26-4.38.31-2.93.1-5.86.15-8.79.23a1,1,0,0,0-.43.14,18.44,18.44,0,0,1-10.82,2.65,17.9,17.9,0,0,1-8.73-2.67.89.89,0,0,0-.43-.12c-3-.08-6-.13-8.94-.24-1.39,0-2.77-.17-4.15-.3-.85-.08-1.13-.58-.75-1.35s.79-1.41,1.2-2.1a29.3,29.3,0,0,0,3.42-9.26,58.74,58.74,0,0,0,1-11.31,17.56,17.56,0,0,1,4-11.13,17.92,17.92,0,0,1,11.61-6.65c.44-.07.88-.12,1.33-.17Z"/><path class="cls-1" d="M0,119.67C-.33,53.8,53.72.31,119,0c66.52-.32,120.67,53.88,120.39,120.2A119.83,119.83,0,0,1,118.88,239.43C53.6,239.11-.32,185.74,0,119.67ZM117.87,9.13A110.61,110.61,0,1,0,230.22,117.07,110.69,110.69,0,0,0,117.87,9.13Z"/><path class="cls-1" d="M151.69,155.51a32.67,32.67,0,0,0-65.18.28,31.7,31.7,0,0,0,.2,6.31,32.42,32.42,0,0,0,1.4,6.15,32.92,32.92,0,0,0,6.16,10.94,32.52,32.52,0,0,0,4.6,4.41,31.75,31.75,0,0,0,5.3,3.42,33,33,0,0,0,5.86,2.34,40.84,40.84,0,0,0,6.1,1.19h-.08l.3.07a3.22,3.22,0,0,1,.57.1l4.94-.08a3,3,0,0,1,.43-.09h-.11l.95-.11.14,0A32.69,32.69,0,0,0,151.69,155.51Zm-26,17.7L119,163.88l-6.89,9.33h-9.62l11.71-15.32-11.31-15.1h9.89l6.45,8.88,6.62-8.88h9.38l-11.31,14.87,11.76,15.55Z"/></g></g></svg>