<svg xmlns="http://www.w3.org/2000/svg" viewBox="0 0 239.36 239.43"><defs><style>.cls-1{fill:#913189;}</style></defs><g id="Capa_2" data-name="Capa 2"><g id="Capa_1-2" data-name="Capa 1"><path class="cls-1" d="M119,0C53.72.31-.33,53.8,0,119.67c-.32,66.07,53.6,119.44,118.88,119.76A119.83,119.83,0,0,0,239.36,120.2C239.64,53.88,185.49-.32,119,0ZM9,121.85a110.62,110.62,0,1,1,196.67,67.4,13.39,13.39,0,0,0-2.39-3.21q-18.45-18.51-36.95-37c-1.77-1.78-1.86-1.78-3.81-.1-.06.05-.17.05-.15,0L153,139.59C172.61,114,165.8,76,140.07,57.38a58.72,58.72,0,0,0-81.86,82.25c8.8,11.85,20.44,19.57,34.93,22.58,17.09,3.55,32.82.09,47-9.91l9.51,9.49c-1.69,2.07-1.71,2.19-.26,3.65q18.72,18.72,37.46,37.44a12.32,12.32,0,0,0,3.1,2.24A110.63,110.63,0,0,1,9,121.85ZM148.45,105.1c-.19,23.68-19.58,43-43,42.75-23.92-.21-43.22-19.68-42.94-43.3a43,43,0,0,1,85.95.55Z"/><path class="cls-1" d="M106.76,67.92c.61.09,1.23.15,1.84.27a15.95,15.95,0,0,1,13.05,16,48.35,48.35,0,0,0,.82,9.22,26.2,26.2,0,0,0,3.4,8.94,10.63,10.63,0,0,1,.74,1.32c.28.62,0,1.06-.65,1.12-1.28.12-2.56.23-3.84.27-2.57.09-5.14.14-7.71.21a.74.74,0,0,0-.38.12,16.24,16.24,0,0,1-9.49,2.33,15.64,15.64,0,0,1-7.66-2.35.72.72,0,0,0-.38-.1c-2.62-.07-5.24-.12-7.85-.21-1.22,0-2.43-.15-3.64-.27-.75-.07-1-.5-.66-1.18s.69-1.24,1.05-1.85a25.67,25.67,0,0,0,3-8.12,52.43,52.43,0,0,0,.88-9.92,15.41,15.41,0,0,1,3.47-9.77A15.73,15.73,0,0,1,103,68.07l1.17-.15Z"/><path class="cls-1" d="M77,134.28q0-4,0-8.09c0-1.48,0-3,0-4.43a3.33,3.33,0,0,1,.93-2.39,14.1,14.1,0,0,1,3.66-2.76,33.59,33.59,0,0,1,5.52-2.53,46.81,46.81,0,0,0,7.38-3.55l1-.58a1.21,1.21,0,0,1,1.89.52c.87,1.68,1.71,3.38,2.55,5.07a41.87,41.87,0,0,0,3.12,5.64,10.86,10.86,0,0,0,1.56,1.76,1.05,1.05,0,0,0,1.61,0,9,9,0,0,0,1.39-1.5,40.4,40.4,0,0,0,3.21-5.75c.87-1.74,1.73-3.49,2.62-5.22a1.24,1.24,0,0,1,1.9-.53c2,1.07,4,2.18,6,3.16,1.51.73,3.12,1.23,4.65,1.9a24.48,24.48,0,0,1,5.88,3.36c.31.26.6.54.89.83a3.64,3.64,0,0,1,1.09,2.74c0,4,0,7.94,0,11.91,0,.15,0,.3,0,.44Z"/></g></g></svg>