<svg xmlns="http://www.w3.org/2000/svg" viewBox="0 0 239.36 239.43"><defs><style>.cls-1{fill:#913189;}</style></defs><g id="Capa_2" data-name="Capa 2"><g id="Capa_1-2" data-name="Capa 1"><path class="cls-1" d="M151.69,151.17a32.67,32.67,0,0,0-65.18.29,31.6,31.6,0,0,0,.2,6.3,32.25,32.25,0,0,0,1.4,6.15,32.66,32.66,0,0,0,6.16,10.94,32.59,32.59,0,0,0,4.6,4.42,31.75,31.75,0,0,0,5.3,3.42A33,33,0,0,0,110,185a38.45,38.45,0,0,0,6.1,1.19h-.08l.3.08a2.51,2.51,0,0,1,.57.1l4.94-.09a2,2,0,0,1,.43-.08h-.11c.32,0,.63-.08.95-.12l.14,0A32.68,32.68,0,0,0,151.69,151.17Zm-12.74-5c-2.07,2.08-4.16,4.16-6.24,6.24l-12,12q-2.25,2.26-4.52,4.51a1.54,1.54,0,0,1-2.54,0c-1.2-1.17-2.37-2.36-3.55-3.55l-8.26-8.27c-.42-.42-.86-.83-1.27-1.26a1.55,1.55,0,0,1,0-2.4l5.35-5.3a1.5,1.5,0,0,1,2.47,0c1.94,1.92,3.86,3.86,5.79,5.79.68.68.68.68,1.34,0L131,138.53c1.13-1.13,1.77-1.13,2.89,0l5.13,5.12a1.61,1.61,0,0,1,.6,1.26A1.65,1.65,0,0,1,139,146.19Z"/><path class="cls-1" d="M25,132.57a36.54,36.54,0,0,1,1-5.06,26,26,0,0,1,5.67-9.87A25.36,25.36,0,0,1,42,110.78a2,2,0,0,1,2.34.46,19.87,19.87,0,0,0,7.35,4.51,15.18,15.18,0,0,0,11.9-.92,26.33,26.33,0,0,0,5.34-3.72,1.72,1.72,0,0,1,1.91-.37,28,28,0,0,1,10.51,6.93c1.12,1.23,1.15,1.23.2,2.59a44.65,44.65,0,0,0-8,25.76c0,.53-.12.68-.68.68-10.79,0-21.58,0-32.37,0a27.8,27.8,0,0,1-6.37-.32,12,12,0,0,1-8.93-9.63c0-.19-.08-.37-.12-.56Z"/><path class="cls-1" d="M212.46,144.33a12.42,12.42,0,0,1-2.85,6,11.11,11.11,0,0,1-8.42,4c-11.07.07-22.15,0-33.23,0-1,0-1.92,0-2.87,0s-1,0-1-1a44.5,44.5,0,0,0-1.73-12,43.71,43.71,0,0,0-6.85-14,.79.79,0,0,1,.06-1.17,25.5,25.5,0,0,1,11.23-7.7,1.86,1.86,0,0,1,2.07.57,19.16,19.16,0,0,0,8.17,4.75c5.32,1.47,10,0,14.29-3.19.79-.59,1.54-1.22,2.3-1.84a1.48,1.48,0,0,1,1.6-.27,27.26,27.26,0,0,1,10.4,6.72,25.62,25.62,0,0,1,6.76,14.37,4.85,4.85,0,0,0,.11.49Z"/><path class="cls-1" d="M150.59,113.39a11,11,0,0,1-1.41,5.68c-.4.77-.41.77-1.06.23a45.16,45.16,0,0,0-18.86-9.49,44.54,44.54,0,0,0-12.76-1.06,43.48,43.48,0,0,0-19.69,5.89,42.71,42.71,0,0,0-6.73,4.74c-.44.39-.67.32-1-.2a13,13,0,0,1-1.46-7.64,25,25,0,0,1,5.07-13.37,25.88,25.88,0,0,1,11.83-8.76,2.27,2.27,0,0,1,2.62.69,19.46,19.46,0,0,0,7.21,4.32,15,15,0,0,0,11.25-.7,23.83,23.83,0,0,0,5.75-3.88,2,2,0,0,1,2.29-.38,27.71,27.71,0,0,1,9.7,6.27,25.38,25.38,0,0,1,7.08,15C150.54,111.49,150.56,112.27,150.59,113.39Z"/><path class="cls-1" d="M58.38,65.26c.7.1,1.4.17,2.09.3a18.2,18.2,0,0,1,14.88,18.2,54.46,54.46,0,0,0,.93,10.5,29.59,29.59,0,0,0,3.88,10.18A13.15,13.15,0,0,1,81,106c.32.71,0,1.21-.74,1.28-1.46.13-2.92.26-4.38.31-2.93.1-5.86.15-8.79.23a.91.91,0,0,0-.42.14,18.46,18.46,0,0,1-10.82,2.65,17.9,17.9,0,0,1-8.73-2.67.93.93,0,0,0-.43-.12c-3-.08-6-.13-8.95-.23-1.38-.05-2.77-.18-4.15-.31-.85-.08-1.13-.58-.75-1.35s.79-1.41,1.2-2.1a29.32,29.32,0,0,0,3.43-9.26,60.37,60.37,0,0,0,1-11.31,17.61,17.61,0,0,1,4-11.13A18,18,0,0,1,54,65.43c.44-.07.89-.11,1.33-.17Z"/><path class="cls-1" d="M120,43.9c.7.1,1.4.17,2.09.31A18.18,18.18,0,0,1,137,62.4a54.39,54.39,0,0,0,.93,10.5,29.59,29.59,0,0,0,3.88,10.18,12.49,12.49,0,0,1,.84,1.52c.32.7,0,1.2-.74,1.27-1.46.13-2.92.26-4.38.31-2.93.11-5.86.16-8.79.24a.9.9,0,0,0-.42.13,18.39,18.39,0,0,1-10.82,2.66,17.8,17.8,0,0,1-8.73-2.68.92.92,0,0,0-.43-.11c-3-.08-6-.14-9-.24-1.38-.05-2.77-.18-4.15-.31-.85-.07-1.13-.57-.75-1.34s.79-1.41,1.2-2.11a29.14,29.14,0,0,0,3.43-9.26,60.34,60.34,0,0,0,1-11.3,17.64,17.64,0,0,1,4-11.14,18,18,0,0,1,11.61-6.65c.44-.07.89-.11,1.33-.17Z"/><path class="cls-1" d="M182.05,73c.69.09,1.4.16,2.09.3A18.21,18.21,0,0,1,199,91.49,54.39,54.39,0,0,0,200,102a29.44,29.44,0,0,0,3.88,10.19,12.29,12.29,0,0,1,.83,1.51c.32.7,0,1.2-.73,1.27-1.46.13-2.92.26-4.38.31-2.93.11-5.86.16-8.79.24a.84.84,0,0,0-.43.14,18.44,18.44,0,0,1-10.82,2.65,17.8,17.8,0,0,1-8.73-2.68.89.89,0,0,0-.43-.11c-3-.08-6-.13-8.94-.24-1.39,0-2.77-.18-4.15-.3-.85-.08-1.13-.58-.75-1.35s.79-1.41,1.2-2.11a29.12,29.12,0,0,0,3.42-9.26,58.7,58.7,0,0,0,1-11.3,17.54,17.54,0,0,1,4-11.13,17.88,17.88,0,0,1,11.61-6.65c.44-.07.88-.12,1.33-.17Z"/><path class="cls-1" d="M0,119.67C-.33,53.8,53.72.31,119,0c66.52-.32,120.67,53.88,120.39,120.2A119.83,119.83,0,0,1,118.88,239.43C53.6,239.11-.32,185.74,0,119.67ZM117.87,9.13A110.61,110.61,0,1,0,230.22,117.07,110.69,110.69,0,0,0,117.87,9.13Z"/></g></g></svg>