<?xml version="1.0" encoding="utf-8"?>
<!-- Generator: Adobe Illustrator 25.2.1, SVG Export Plug-In . SVG Version: 6.00 Build 0)  -->
<svg version="1.1" id="Capa_1" xmlns="http://www.w3.org/2000/svg" xmlns:xlink="http://www.w3.org/1999/xlink" x="0px" y="0px"
	 viewBox="0 0 320 46" style="enable-background:new 0 0 320 46;" xml:space="preserve">
<style type="text/css">
	.st0{fill:#FF671D;}
	.st1{fill:#9D1D96;}
	.st2{fill:#69C0CC;}
</style>
<g id="Capa_2_1_">
	<g id="Capa_1-2">
		<path class="st0" d="M101,2.9c0.7,0,1.3,0.6,1.3,1.3v17.4c0.1,0.7-0.5,1.4-1.2,1.4s-1.4-0.5-1.4-1.2c0-0.1,0-0.1,0-0.2V4.3
			C99.7,3.5,100.3,3,101,2.9z"/>
		<path class="st0" d="M110,7.7l-0.6-1.1v15c0,0.7-0.5,1.3-1.2,1.4c0,0,0,0,0,0c-0.7,0-1.3-0.6-1.3-1.3c0,0,0,0,0,0V4.6
			c0-0.7,0.6-1.4,1.4-1.4h1.1c0.5,0,1,0.3,1.2,0.7l9.9,14.3l0.6,1.1V4.3c0-0.7,0.5-1.3,1.2-1.3c0,0,0,0,0,0c0.7,0,1.3,0.6,1.3,1.3
			v17.1c0,0.7-0.6,1.4-1.4,1.4h-1.1c-0.5,0-1-0.3-1.3-0.7L110,7.7z"/>
		<path class="st0" d="M131,7.7l-0.6-1.1v15c0,0.7-0.5,1.3-1.2,1.4c0,0,0,0,0,0c-0.7,0-1.3-0.6-1.3-1.4c0,0,0,0,0,0V4.6
			c0-0.7,0.6-1.3,1.3-1.4h1.1c0.5,0,1,0.3,1.2,0.7l9.9,14.3l0.6,1.1V4.3c0-0.7,0.5-1.3,1.2-1.3c0,0,0,0,0,0c0.7,0,1.3,0.6,1.3,1.3
			v17.1c0,0.7-0.6,1.4-1.4,1.4h-1.1c-0.5,0-1-0.3-1.3-0.7L131,7.7z"/>
		<path class="st0" d="M157.8,2.9c5.5,0.1,9.9,4.6,9.9,10.1c0.2,5.5-4.1,10-9.6,10.2c-5.5,0.2-10-4.1-10.2-9.6c0-0.2,0-0.4,0-0.6
			C147.8,7.5,152.3,3,157.8,2.9z M157.8,20.7c4.1-0.1,7.4-3.5,7.3-7.6c0,0,0,0,0,0c0-4.2-3.2-7.7-7.3-7.7s-7.3,3.5-7.3,7.7
			S153.7,20.7,157.8,20.7z"/>
		<path class="st0" d="M177.5,20.3h0.4l5.8-16.3c0.2-0.6,0.7-1.1,1.4-1.1c0.7,0,1.3,0.6,1.3,1.4c0,0.3-0.1,0.6-0.2,0.8l-5.8,16.5
			c-0.2,0.6-0.7,1-1.3,1.1h-2.7c-0.6,0-1.2-0.4-1.3-1l-5.8-16.6c-0.1-0.3-0.2-0.6-0.2-0.9c0-0.7,0.6-1.3,1.3-1.3
			c0.6,0,1.2,0.5,1.3,1.1L177.5,20.3z"/>
		<path class="st0" d="M199.2,17.4h-9.1l-1.6,4.5c-0.2,0.6-0.7,1.1-1.4,1.1c-0.7,0-1.3-0.6-1.3-1.4c0-0.3,0.1-0.6,0.2-0.8l6-16.5
			c0.2-0.6,0.7-1,1.3-1.1h2.7c0.6,0,1.2,0.4,1.3,1l6,16.6c0.1,0.3,0.2,0.6,0.2,0.9c0,0.7-0.6,1.3-1.3,1.3c-0.6,0-1.2-0.5-1.3-1.1
			L199.2,17.4z M191,15h7.4l-3.4-9.4h-0.5L191,15z"/>
		<path class="st1" d="M225.7,21.6c0,0.7-0.5,1.4-1.3,1.4c0,0,0,0-0.1,0c-0.7,0-1.3-0.6-1.3-1.3c0,0,0,0,0-0.1V6.5l-0.7,0.9l-5,6.1
			c-0.5,0.8-1.6,1-2.4,0.5c-0.2-0.1-0.4-0.3-0.5-0.5l-5-6.1L209,6.5v15.1c0.1,0.7-0.5,1.3-1.2,1.4c0,0-0.1,0-0.1,0
			c-0.7,0-1.3-0.6-1.3-1.4c0,0,0,0,0,0V4.6c0-0.7,0.5-1.4,1.3-1.4c0,0,0,0,0,0h1.1c0.5,0.1,1,0.4,1.3,0.8l6,7.4l6-7.4
			c0.3-0.4,0.7-0.7,1.3-0.8h1.1c0.7,0,1.3,0.6,1.3,1.4c0,0,0,0,0,0V21.6z"/>
		<path class="st1" d="M231.1,2.9c0.7,0,1.3,0.6,1.3,1.3v10.2c0,4.5,2.9,6.2,5.9,6.2s5.9-1.6,5.9-6.2V4.2c0-0.7,0.6-1.3,1.3-1.3
			c0.7,0,1.3,0.6,1.3,1.3c0,0,0,0,0,0v10c0,5.9-4,8.8-8.5,8.8c-4.5,0-8.5-2.8-8.5-8.8v-10C229.8,3.5,230.4,2.9,231.1,2.9z"/>
		<path class="st1" d="M263.8,2.9c0.7,0,1.3,0.6,1.3,1.3v10.9c0.1,4.3-3.3,7.8-7.6,7.9c0,0-0.1,0-0.1,0c-4.1,0.1-7.6-3.1-7.7-7.3
			c0-0.1,0-0.2,0-0.3c-0.1-0.7,0.5-1.3,1.2-1.4s1.3,0.5,1.4,1.2c0,0.1,0,0.1,0,0.2c0,2.8,2.3,5.1,5.1,5.1c2.8,0,5.1-2.3,5.1-5.1
			c0,0,0,0,0,0V4.3C262.5,3.6,263.1,3,263.8,2.9z"/>
		<path class="st1" d="M281.7,20.3c0.7-0.1,1.3,0.4,1.3,1.1c0.1,0.7-0.4,1.3-1.1,1.3c-0.1,0-0.2,0-0.3,0h-11.2
			c-0.7,0-1.3-0.6-1.3-1.3c0,0,0,0,0,0V4.5c0-0.7,0.5-1.3,1.2-1.3c0,0,0,0,0.1,0h11.2c0.7,0,1.2,0.5,1.2,1.1c0,0,0,0.1,0,0.1
			c0,0.7-0.5,1.2-1.2,1.2c0,0,0,0-0.1,0h-9.8v5.8h8.3c0.6,0,1.2,0.5,1.2,1.1c0,0,0,0,0,0c0,0.7-0.5,1.2-1.1,1.2c0,0-0.1,0-0.1,0
			h-8.3v6.5H281.7z"/>
		<path class="st1" d="M300.2,20.8c0.4,0.6,0.3,1.5-0.4,2c-0.2,0.1-0.4,0.2-0.7,0.2c-0.4,0-0.8-0.2-1.1-0.5l-5-6.8h-4.2v6
			c0,0.7-0.6,1.4-1.3,1.4c0,0,0,0,0,0c-0.7,0-1.3-0.6-1.3-1.4V4.5c0-0.7,0.6-1.3,1.3-1.3h6.5c3.5,0,6.3,2.8,6.4,6.3
			c0,0.1,0,0.1,0,0.2c-0.1,2.7-1.8,5-4.3,5.9L300.2,20.8z M288.9,13.3h5.2c2.1,0,3.8-1.7,3.8-3.7c0,0,0,0,0,0c0-2.1-1.7-3.9-3.8-4
			h-5.2V13.3z"/>
		<path class="st0" d="M29.3,7.3c2.3,2.3,2.3,5.9,0,8.2l-4.1,4.1l-4.1-4.1c-2.3-2.3-2.3-5.9,0-8.2S27.1,5,29.3,7.3z"/>
		<path class="st0" d="M29,18.6l-3.8,3.7l-3.7-3.7c-1.3,1.1-2.1,2.7-2.1,4.4v11.6c0,3.2,2.6,5.8,5.8,5.8s5.8-2.6,5.8-5.8l0,0V23
			C31.1,21.3,30.3,19.7,29,18.6z"/>
		<path class="st1" d="M74.7,5.6c-3.5,0-6.8,1.3-9.4,3.6l-0.3,0.3c-5.4-5.1-13.8-5.1-19.3-0.1l-0.1,0.1C44.3,8,42.7,7,41,6.3
			c-0.5-0.1-0.9-0.2-1.4-0.2c-2,0-3.8,1.3-4.4,3.3c-0.7,2.3,0.3,4.3,2.9,5.8c1.4,0.8,2.8,2.1,2.8,6v14.5c0,2.6,2.1,4.6,4.6,4.6
			c2.6,0,4.6-2.1,4.6-4.6c0,0,0,0,0,0V21.2c0-0.3,0-0.5,0-0.8c0-0.1,0-0.3,0-0.4c-0.1-2.8,2.1-5.2,4.9-5.3c2.8-0.1,5.2,2.1,5.3,4.9
			c0,0.1,0,0.3,0,0.4v15.7c0,2.6,2.1,4.6,4.6,4.6c2.6,0,4.6-2.1,4.6-4.6c0,0,0,0,0,0V20.1c0-2.8,2.3-5.1,5.1-5.1s5.1,2.3,5.1,5.1
			c0,0,0,0,0,0v15.7c-0.1,2.6,1.9,4.7,4.4,4.8c2.6,0.1,4.7-1.9,4.8-4.4c0-0.1,0-0.3,0-0.4V20.1C89,12.1,82.6,5.6,74.7,5.6z"/>
		<path class="st2" d="M111,30.6v11.6c0,0.5-0.4,0.9-0.9,0.9c0,0,0,0,0,0c-0.5,0-0.9-0.4-0.9-0.9V37h-7.7v5.2c0,0.5-0.4,0.9-0.9,0.9
			c-0.5,0-0.9-0.4-0.9-0.9l0,0V30.6c0-0.5,0.4-0.9,0.9-0.9c0.5,0,0.9,0.4,0.9,0.9v4.8h7.7v-4.8c0-0.5,0.4-0.9,0.9-0.9c0,0,0,0,0,0
			C110.6,29.7,111,30.1,111,30.6C111,30.6,111,30.6,111,30.6z"/>
		<path class="st2" d="M120.1,29.7c3.7,0,6.7,2.9,6.8,6.6c0,3.7-2.9,6.7-6.6,6.8c-3.7,0-6.7-2.9-6.8-6.6c0,0,0,0,0-0.1
			C113.5,32.7,116.5,29.7,120.1,29.7z M120.1,41.5c2.8,0.1,5.3-2,5.4-4.9c0.1-2.8-2-5.3-4.9-5.4c-2.8-0.1-5.3,2-5.4,4.9
			c0,0.1,0,0.2,0,0.3C115.2,39.1,117.3,41.4,120.1,41.5C120.1,41.5,120.1,41.5,120.1,41.5z"/>
		<path class="st2" d="M131.4,32.9l-0.4-0.7v10c0,0.5-0.4,0.9-0.8,0.9c0,0,0,0,0,0c-0.5,0-0.9-0.4-0.9-0.9c0,0,0,0,0,0V30.8
			c0-0.5,0.4-0.9,0.9-0.9h0.8c0.3,0,0.7,0.2,0.8,0.5l6.6,9.6l0.4,0.7v-10c0-0.5,0.4-0.9,0.8-0.9c0,0,0,0,0,0c0.5,0,0.9,0.4,0.9,0.9
			V42c0,0.5-0.4,0.9-0.9,0.9h-0.8c-0.3,0-0.6-0.2-0.8-0.5L131.4,32.9z"/>
		<path class="st2" d="M147.6,29.9c4.3,0,6.6,2.9,6.6,6.5c0.2,3.5-2.5,6.4-6,6.6c-0.2,0-0.4,0-0.7,0h-3.1c-0.4,0-0.8-0.4-0.8-0.8
			c0,0,0,0,0-0.1V30.7c0-0.4,0.3-0.8,0.7-0.9c0,0,0,0,0.1,0L147.6,29.9z M145.3,31.5v9.8h2.2c3.4,0,4.9-2.4,4.9-5
			c0-2.6-1.6-4.9-4.9-4.9L145.3,31.5z"/>
		<path class="st2" d="M157.5,29.7c0.5,0,0.9,0.4,0.9,0.9v6.8c0,3,2,4.1,3.9,4.1s4-1.1,4-4.1v-6.8c0-0.5,0.5-0.8,1-0.8
			c0.4,0,0.8,0.4,0.8,0.8v6.7c0,4-2.7,5.9-5.7,5.9s-5.7-1.9-5.7-5.9v-6.6C156.6,30.1,157,29.7,157.5,29.7L157.5,29.7z"/>
		<path class="st2" d="M180.3,41.6c0.3,0.4,0.2,1-0.2,1.3c-0.1,0.1-0.3,0.2-0.5,0.2c-0.3,0-0.6-0.1-0.7-0.4l-3.3-4.5h-2.8v4
			c0,0.5-0.4,0.9-0.9,0.9c-0.5,0-0.9-0.4-0.9-0.9V30.8c0-0.5,0.4-0.9,0.9-0.9h4.3c2.3,0,4.3,1.8,4.3,4.1c0,0,0,0.1,0,0.1
			c-0.1,1.8-1.2,3.3-2.9,3.9L180.3,41.6z M172.8,36.6h3.5c1.4,0,2.5-1.1,2.5-2.5c0,0,0,0,0,0c0-1.4-1.1-2.6-2.5-2.7h-3.5V36.6z"/>
		<path class="st2" d="M191.4,39.3h-6.1l-1.1,3c-0.1,0.4-0.5,0.8-0.9,0.8c-0.5,0-0.9-0.4-0.9-0.9c0-0.2,0.1-0.4,0.1-0.6l4-11
			c0.1-0.4,0.5-0.7,0.9-0.7h1.8c0.4,0,0.8,0.3,0.9,0.7l4,11c0.1,0.2,0.1,0.4,0.1,0.6c0,0.5-0.4,0.9-0.9,0.9c-0.4,0-0.8-0.3-0.9-0.7
			L191.4,39.3z M185.9,37.7h4.9l-2.3-6.3h-0.3L185.9,37.7z"/>
		<path class="st2" d="M203.5,39.3c0-3.1-7.4-1.5-7.4-6.1c0-2,1.9-3.6,4.3-3.6c2.8,0,4.3,1.7,4.3,2.5c0,0.4-0.4,0.8-0.8,0.8
			c-0.5,0-0.6-0.3-0.9-0.5c-0.6-0.8-1.6-1.3-2.6-1.2c-1.6,0-2.7,1-2.7,1.9c0,3.1,7.4,1.6,7.4,6.1c0,2.3-2.2,3.9-4.8,3.9
			c-3,0-4.6-2-4.6-2.7c0-0.4,0.3-0.8,0.7-0.9c0,0,0,0,0.1,0c0.4,0,0.7,0.2,0.9,0.6c0.7,0.9,1.8,1.5,2.9,1.4
			C202.2,41.5,203.5,40.5,203.5,39.3z"/>
	</g>
</g>
</svg>
