<svg xmlns="http://www.w3.org/2000/svg" xmlns:xlink="http://www.w3.org/1999/xlink" viewBox="0 0 844.57 130.38"><defs><style>.cls-1{isolation:isolate;}.cls-2{mix-blend-mode:multiply;}.cls-3{fill:#373736;}.cls-4{fill:#004f73;}.cls-5{fill:#858b8e;}.cls-6{fill:#aa0068;}.cls-7{fill:#ff534e;}.cls-8{fill:url(#Degradado_sin_nombre_160);}.cls-9{fill:url(#Degradado_sin_nombre_9);}.cls-10{fill:#98989a;}.cls-11{fill:#6bc4d0;}</style><linearGradient id="Degradado_sin_nombre_160" x1="33.54" y1="807.95" x2="35.17" y2="807.95" gradientTransform="matrix(8.72, 0, 0, -8.72, 502.19, 7091.56)" gradientUnits="userSpaceOnUse"><stop offset="0" stop-color="#4d4d4d"/><stop offset="1" stop-color="#8a8a8a"/></linearGradient><linearGradient id="Degradado_sin_nombre_9" x1="794.54" y1="48.79" x2="808.75" y2="48.79" gradientUnits="userSpaceOnUse"><stop offset="0" stop-color="#aa0068"/><stop offset="1" stop-color="#ff534e"/></linearGradient></defs><g class="cls-1"><g id="Capa_2" data-name="Capa 2"><g id="Capa_1-2" data-name="Capa 1"><g class="cls-2"><path class="cls-3" d="M432.32,86.5h4.23a3.37,3.37,0,0,1,2.46.83,2.11,2.11,0,0,1,.64,1.56v0A2.25,2.25,0,0,1,438.3,91a2.31,2.31,0,0,1,1.87,2.29v0c0,1.69-1.39,2.59-3.48,2.59h-4.37Zm3.9,4c1.06,0,1.77-.42,1.77-1.28v0c0-.74-.59-1.2-1.66-1.2H434v2.51Zm.48,4c1.13,0,1.82-.44,1.82-1.29v0c0-.79-.64-1.26-1.94-1.26H434v2.58Z"/><path class="cls-3" d="M445.66,95.92V95a2.85,2.85,0,0,1-2.3,1,2.27,2.27,0,0,1-2.53-2.19v0c0-1.57,1.22-2.32,2.88-2.32a6.21,6.21,0,0,1,2,.29v-.13c0-1-.62-1.52-1.75-1.52a5,5,0,0,0-2,.44l-.44-1.31a6.25,6.25,0,0,1,2.71-.59c2.09,0,3.12,1.11,3.12,3v4.22Zm0-3a4.64,4.64,0,0,0-1.63-.28c-1,0-1.62.42-1.62,1.1v0c0,.67.6,1,1.37,1,1.08,0,1.88-.61,1.88-1.5Z"/><path class="cls-3" d="M448.68,88.81h1.63v1.1a2.54,2.54,0,0,1,2.22-1.25,2.44,2.44,0,0,1,2.53,2.73v4.53h-1.63v-4c0-1.1-.55-1.74-1.52-1.74a1.58,1.58,0,0,0-1.6,1.77v4h-1.63Z"/><path class="cls-3" d="M456.1,92.4v0a3.67,3.67,0,0,1,3.68-3.72,3.54,3.54,0,0,1,2.84,1.23l-1,1.09a2.39,2.39,0,0,0-1.85-.89,2.14,2.14,0,0,0-2,2.26v0a2.16,2.16,0,0,0,2.13,2.28,2.49,2.49,0,0,0,1.84-.88l1,1a3.73,3.73,0,0,1-6.58-2.35"/><path class="cls-3" d="M463,92.4v0a3.79,3.79,0,0,1,7.58,0v0a3.72,3.72,0,0,1-3.81,3.7A3.68,3.68,0,0,1,463,92.4m5.95,0v0a2.2,2.2,0,0,0-2.18-2.29,2.13,2.13,0,0,0-2.14,2.26v0a2.19,2.19,0,0,0,2.17,2.28A2.14,2.14,0,0,0,469,92.4"/><rect class="cls-3" x="475.52" y="86.5" width="1.66" height="9.42"/><path class="cls-3" d="M479,88.81h1.63v1.1a2.57,2.57,0,0,1,2.22-1.25,2.44,2.44,0,0,1,2.53,2.73v4.53h-1.62v-4c0-1.1-.56-1.74-1.52-1.74a1.59,1.59,0,0,0-1.61,1.77v4H479Z"/><path class="cls-3" d="M487.11,94V90.21h-.9v-1.4h.9v-2h1.62v2h1.92v1.4h-1.92V93.7a.77.77,0,0,0,.88.88,2.21,2.21,0,0,0,1-.24v1.33a2.83,2.83,0,0,1-1.47.37,1.82,1.82,0,0,1-2-2.09"/><path class="cls-3" d="M491.16,92.39v0a3.53,3.53,0,0,1,3.47-3.7c2.26,0,3.41,1.78,3.41,3.82,0,.15,0,.3,0,.46h-5.22a2,2,0,0,0,2,1.81,2.6,2.6,0,0,0,1.93-.85l.95.85a3.6,3.6,0,0,1-2.9,1.33,3.55,3.55,0,0,1-3.65-3.69m5.26-.52a1.85,1.85,0,0,0-1.8-1.88,1.93,1.93,0,0,0-1.85,1.88Z"/><path class="cls-3" d="M499.14,88.81h1.63v1.6a2.53,2.53,0,0,1,2.52-1.74V90.4h-.1c-1.43,0-2.42.93-2.42,2.81v2.71h-1.63Z"/><path class="cls-3" d="M508.17,95.92V95a2.85,2.85,0,0,1-2.3,1,2.27,2.27,0,0,1-2.53-2.19v0c0-1.57,1.22-2.32,2.88-2.32a6.1,6.1,0,0,1,2,.29v-.13c0-1-.61-1.52-1.74-1.52a5,5,0,0,0-2,.44L504,89.29a6.23,6.23,0,0,1,2.7-.59c2.11,0,3.13,1.11,3.13,3v4.22Zm0-3a4.68,4.68,0,0,0-1.63-.28c-1,0-1.62.42-1.62,1.1v0c0,.67.6,1,1.37,1,1.07,0,1.88-.61,1.88-1.5Z"/><path class="cls-3" d="M511.19,88.81h1.63v1.08A2.51,2.51,0,0,1,515,88.66a2.26,2.26,0,0,1,2.12,1.25,2.91,2.91,0,0,1,2.41-1.25c1.54,0,2.48,1,2.48,2.72v4.54h-1.62v-4c0-1.13-.53-1.74-1.44-1.74s-1.52.62-1.52,1.77v4h-1.63V91.86c0-1.1-.54-1.72-1.44-1.72s-1.52.68-1.52,1.78v4h-1.63Z"/><path class="cls-3" d="M523.05,92.39v0a3.53,3.53,0,0,1,3.47-3.7c2.26,0,3.4,1.78,3.4,3.82,0,.15,0,.3,0,.46h-5.23a2,2,0,0,0,2.05,1.81,2.6,2.6,0,0,0,1.93-.85l1,.85a3.61,3.61,0,0,1-2.91,1.33,3.54,3.54,0,0,1-3.64-3.69m5.26-.52A1.86,1.86,0,0,0,526.5,90a1.93,1.93,0,0,0-1.84,1.88Z"/><path class="cls-3" d="M531,88.81h1.63v1.6a2.52,2.52,0,0,1,2.51-1.74V90.4h-.09c-1.43,0-2.42.93-2.42,2.81v2.71H531Z"/><path class="cls-3" d="M536.08,86.17h1.75v1.55h-1.75Zm.06,2.64h1.63v7.11h-1.63Z"/><path class="cls-3" d="M539,92.4v0a3.67,3.67,0,0,1,3.69-3.72,3.55,3.55,0,0,1,2.84,1.23l-1,1.09a2.38,2.38,0,0,0-1.85-.89,2.13,2.13,0,0,0-2,2.26v0a2.16,2.16,0,0,0,2.13,2.28,2.51,2.51,0,0,0,1.84-.88l1,1A3.73,3.73,0,0,1,539,92.4"/><path class="cls-3" d="M550.86,95.92V95a2.89,2.89,0,0,1-2.31,1A2.27,2.27,0,0,1,546,93.87v0c0-1.57,1.23-2.32,2.88-2.32a6.17,6.17,0,0,1,2,.29v-.13c0-1-.62-1.52-1.75-1.52a4.91,4.91,0,0,0-2,.44l-.45-1.31a6.25,6.25,0,0,1,2.71-.59c2.1,0,3.12,1.11,3.12,3v4.22Zm0-3a4.72,4.72,0,0,0-1.63-.28c-1,0-1.63.42-1.63,1.1v0c0,.67.6,1,1.37,1,1.08,0,1.89-.61,1.89-1.5Z"/><path class="cls-3" d="M553.87,88.81h1.63v1.1a2.57,2.57,0,0,1,2.22-1.25,2.44,2.44,0,0,1,2.53,2.73v4.53h-1.63v-4c0-1.1-.55-1.74-1.52-1.74a1.58,1.58,0,0,0-1.6,1.77v4h-1.63Z"/><path class="cls-3" d="M561.29,92.4v0a3.79,3.79,0,0,1,7.58,0v0a3.72,3.72,0,0,1-3.82,3.7,3.68,3.68,0,0,1-3.76-3.68m6,0v0a2.2,2.2,0,0,0-2.19-2.29,2.13,2.13,0,0,0-2.13,2.26v0a2.19,2.19,0,0,0,2.16,2.28,2.14,2.14,0,0,0,2.16-2.26"/><path class="cls-3" d="M431.77,106.28v0a3.39,3.39,0,0,1,3.3-3.69,2.93,2.93,0,0,1,2.42,1.25V100h1.63v9.83h-1.63v-1.19a2.83,2.83,0,0,1-2.42,1.33,3.4,3.4,0,0,1-3.3-3.68m5.75,0v0a2.14,2.14,0,0,0-2.06-2.28,2.09,2.09,0,0,0-2,2.28v0a2.07,2.07,0,1,0,4.11,0"/><path class="cls-3" d="M440.22,106.29v0a3.53,3.53,0,0,1,3.48-3.7c2.26,0,3.4,1.78,3.4,3.82,0,.15,0,.3,0,.46h-5.22a2,2,0,0,0,2,1.81,2.61,2.61,0,0,0,1.93-.85l.95.85a3.61,3.61,0,0,1-2.91,1.33,3.56,3.56,0,0,1-3.65-3.69m5.27-.53a1.86,1.86,0,0,0-1.81-1.87,1.93,1.93,0,0,0-1.84,1.87Z"/><path class="cls-3" d="M451.9,100.39h3.51a4.7,4.7,0,0,1,5,4.69v0a4.72,4.72,0,0,1-5,4.71H451.9Zm3.51,7.92a3.07,3.07,0,0,0,3.27-3.18v0a3.09,3.09,0,0,0-3.27-3.21h-1.86v6.41Z"/><path class="cls-3" d="M461.3,106.29v0a3.53,3.53,0,0,1,3.48-3.7c2.26,0,3.4,1.78,3.4,3.82a3.67,3.67,0,0,1,0,.46h-5.22a2,2,0,0,0,2.05,1.81,2.58,2.58,0,0,0,1.92-.85l1,.85A3.61,3.61,0,0,1,465,110a3.55,3.55,0,0,1-3.65-3.69m5.27-.53a1.86,1.86,0,0,0-1.81-1.87,1.93,1.93,0,0,0-1.84,1.87Z"/><path class="cls-3" d="M468.71,108.89l.72-1.11a4,4,0,0,0,2.33.88c.7,0,1.11-.3,1.11-.77v0c0-.56-.76-.74-1.59-1-1-.3-2.22-.73-2.22-2.09v0a2.26,2.26,0,0,1,2.53-2.17,4.92,4.92,0,0,1,2.61.81l-.65,1.15a4.16,4.16,0,0,0-2-.67c-.64,0-1,.3-1,.71v0c0,.51.77.73,1.6,1,1,.32,2.21.79,2.21,2.07v0c0,1.49-1.16,2.23-2.64,2.23a5,5,0,0,1-3-1.06"/><path class="cls-3" d="M479.83,109.82v-.88a2.89,2.89,0,0,1-2.31,1,2.27,2.27,0,0,1-2.53-2.19v0c0-1.57,1.23-2.33,2.88-2.33a6.14,6.14,0,0,1,2,.3v-.13c0-1-.62-1.52-1.75-1.52a4.91,4.91,0,0,0-2,.44l-.45-1.31a6.25,6.25,0,0,1,2.71-.59c2.1,0,3.12,1.11,3.12,3v4.22Zm0-3a4.72,4.72,0,0,0-1.63-.28c-1,0-1.63.42-1.63,1.1v0c0,.67.6,1,1.37,1,1.08,0,1.89-.61,1.89-1.49Z"/><path class="cls-3" d="M482.84,102.71h1.63v1.6a2.5,2.5,0,0,1,2.52-1.73v1.72h-.1c-1.43,0-2.42.93-2.42,2.81v2.71h-1.63Z"/><path class="cls-3" d="M487.86,102.71h1.63v1.6a2.51,2.51,0,0,1,2.52-1.73v1.72h-.1c-1.42,0-2.42.93-2.42,2.81v2.71h-1.63Z"/><path class="cls-3" d="M492.25,106.3v0a3.79,3.79,0,0,1,7.58,0v0A3.72,3.72,0,0,1,496,110a3.68,3.68,0,0,1-3.77-3.68m5.95,0v0A2.2,2.2,0,0,0,496,104a2.13,2.13,0,0,0-2.14,2.26v0a2.2,2.2,0,0,0,2.17,2.28,2.14,2.14,0,0,0,2.15-2.26"/><rect class="cls-3" x="501.04" y="99.99" width="1.63" height="9.83"/><rect class="cls-3" x="504.35" y="99.99" width="1.63" height="9.83"/><path class="cls-3" d="M507.17,106.3v0a3.8,3.8,0,0,1,7.59,0v0a3.8,3.8,0,0,1-7.59,0m6,0v0a2.21,2.21,0,0,0-2.19-2.29,2.13,2.13,0,0,0-2.13,2.26v0a2.2,2.2,0,0,0,2.16,2.28,2.14,2.14,0,0,0,2.16-2.26"/><path class="cls-3" d="M467.36,47.54a11.85,11.85,0,0,0,5.54-10.46v-.14a12,12,0,0,0-3.59-8.9c-3-3-7.63-4.58-13.39-4.58H432.34V74.14h24.14c12.17,0,19.16-5.19,19.16-14.25v-.14c0-5.82-2.57-9.63-8.28-12.21M456.48,63.12H444.4V53.85h11.73c4.79,0,7.23,1.54,7.23,4.57v.14c0,3-2.32,4.56-6.88,4.56M444.4,43.33V34.48h9.9c2.89,0,6.32.74,6.32,4.28v.15c0,2.93-2.36,4.42-7,4.42Z"/><path class="cls-3" d="M516.23,23.46H496.3V74.14h19.92a27.7,27.7,0,0,0,19.38-7.31,24.7,24.7,0,0,0,7.5-18v-.14c0-14.6-11.3-25.2-26.88-25.2m14,25.34v.14c0,8.32-5.64,13.9-14,13.9h-7.58V34.77h7.58c8.4,0,14,5.63,14,14"/><path class="cls-3" d="M485.22,23.38a6.18,6.18,0,0,1,6.18,6.18V74.15H479.05V23.38Z"/><path class="cls-4" d="M380.78,56.47c-6.54,10.58,14.45,10.74,4.74,30.51l-.86.14A41.41,41.41,0,0,1,344.5,22.74c-1.06,23.89,42.38,23.86,36.28,33.73M390,86c2.23-4.16,7.1-10.23,17.51-22.46,15.57-18.29-30.56-12.15-38.47-26C362.57,26.1,386.8,17.9,401.45,11.56A41.4,41.4,0,0,1,390,86M376.37,33.72c-1.55.82,1.23,4.43,8.34,4.62s-2.06-7.91-8.34-4.62m15.69,3.86c-5.33-1.72-1.82,2.54.72,2.83s3.06-1.6-.72-2.83m5.57,4.18c-1.77-.08-2.09,1,.57,1.56,3.76.79,1.2-1.49-.57-1.56"/></g><g class="cls-2"><path class="cls-5" d="M612.68,78.31H614l1.09,5.63.6,3.34h.07c.23-1.11.48-2.23.72-3.34L618,78.31h1.19l1.44,5.63c.25,1.1.5,2.22.75,3.34h.06c.2-1.12.39-2.24.59-3.34l1.08-5.63h1.27L622.2,88.66h-1.58l-1.57-6.22c-.18-.81-.34-1.56-.49-2.36h-.07c-.16.8-.34,1.55-.52,2.36l-1.53,6.22h-1.56Z"/><path class="cls-5" d="M625.76,83.45c0-3.32,1.82-5.33,4.42-5.33s4.42,2,4.42,5.33-1.82,5.4-4.42,5.4-4.42-2.09-4.42-5.4m7.48,0c0-2.58-1.21-4.17-3.06-4.17s-3.06,1.59-3.06,4.17,1.21,4.24,3.06,4.24,3.06-1.67,3.06-4.24"/><path class="cls-5" d="M637.15,78.31h1.59l2,5.53c.25.71.49,1.44.74,2.16h.06c.25-.72.47-1.45.71-2.16l2-5.53h1.59V88.66h-1.22V83c0-.9.1-2.15.16-3.06h-.06l-.82,2.36-2,5.35H641l-2-5.35-.82-2.36h-.06c.06.91.16,2.16.16,3.06v5.7h-1.19Z"/><polygon class="cls-5" points="648.93 78.31 654.89 78.31 654.89 79.43 650.25 79.43 650.25 82.67 654.17 82.67 654.17 83.78 650.25 83.78 650.25 87.54 655.05 87.54 655.05 88.66 648.93 88.66 648.93 78.31"/><path class="cls-5" d="M657.56,78.31h1.36l3.74,6.5L663.78,87h.06c-.06-1-.17-2.21-.17-3.3V78.31h1.25V88.66h-1.36l-3.74-6.51L658.7,80h-.06c.06,1,.16,2.15.16,3.23v5.42h-1.24Z"/><polygon class="cls-5" points="671.54 78.31 677.51 78.31 677.51 79.43 672.86 79.43 672.86 82.67 676.78 82.67 676.78 83.78 672.86 83.78 672.86 87.54 677.66 87.54 677.66 88.66 671.54 88.66 671.54 78.31"/><path class="cls-5" d="M680.17,78.31h1.36l3.74,6.5L686.39,87h.06c-.06-1-.16-2.21-.16-3.3V78.31h1.25V88.66h-1.36l-3.75-6.51L681.31,80h-.06c.07,1,.17,2.15.17,3.23v5.42h-1.25Z"/><polygon class="cls-5" points="692.84 79.42 689.71 79.42 689.71 78.31 697.29 78.31 697.29 79.42 694.16 79.42 694.16 88.66 692.84 88.66 692.84 79.42"/><path class="cls-5" d="M699.46,78.31h3.24c2.11,0,3.62.76,3.62,2.91s-1.51,3.06-3.62,3.06h-1.93v4.38h-1.31Zm3,4.91c1.61,0,2.5-.66,2.5-2s-.89-1.84-2.5-1.84h-1.74v3.84Zm-.07.7,1-.68,3.16,5.42h-1.49Z"/><polygon class="cls-5" points="708.75 78.31 714.72 78.31 714.72 79.43 710.07 79.43 710.07 82.67 713.99 82.67 713.99 83.78 710.07 83.78 710.07 87.54 714.88 87.54 714.88 88.66 708.75 88.66 708.75 78.31"/><path class="cls-5" d="M717.38,78.31h3c2.32,0,3.89.78,3.89,3s-1.56,3.19-3.82,3.19h-1.7v4.11h-1.32Zm2.85,5.17c1.81,0,2.67-.65,2.67-2.12s-.91-2-2.73-2H718.7v4.1Z"/><path class="cls-5" d="M726.63,78.31h3.24c2.11,0,3.62.76,3.62,2.91s-1.51,3.06-3.62,3.06h-1.93v4.38h-1.31Zm3,4.91c1.61,0,2.49-.66,2.49-2s-.88-1.84-2.49-1.84h-1.74v3.84Zm-.07.7,1-.68,3.16,5.42h-1.5Z"/><polygon class="cls-5" points="735.92 78.31 741.88 78.31 741.88 79.43 737.24 79.43 737.24 82.67 741.16 82.67 741.16 83.78 737.24 83.78 737.24 87.54 742.04 87.54 742.04 88.66 735.92 88.66 735.92 78.31"/><path class="cls-5" d="M744.55,78.31h1.36l3.74,6.5L750.77,87h.06c-.06-1-.16-2.21-.16-3.3V78.31h1.25V88.66h-1.36l-3.75-6.51L745.69,80h-.06c.07,1,.17,2.15.17,3.23v5.42h-1.25Z"/><polygon class="cls-5" points="755.06 78.31 761.03 78.31 761.03 79.43 756.38 79.43 756.38 82.67 760.3 82.67 760.3 83.78 756.38 83.78 756.38 87.54 761.19 87.54 761.19 88.66 755.06 88.66 755.06 78.31"/><path class="cls-5" d="M763.64,84.38V78.31H765v6.11c0,2.49,1,3.27,2.4,3.27s2.45-.78,2.45-3.27V78.31h1.26v6.07c0,3.32-1.6,4.47-3.71,4.47s-3.73-1.15-3.73-4.47"/><path class="cls-5" d="M774.19,78.31h3.24c2.1,0,3.62.76,3.62,2.91s-1.52,3.06-3.62,3.06H775.5v4.38h-1.31Zm3,4.91c1.61,0,2.49-.66,2.49-2s-.88-1.84-2.49-1.84H775.5v3.84Zm-.07.7,1-.68,3.16,5.42h-1.5Z"/><path class="cls-5" d="M782.51,87.31l.79-.9a4,4,0,0,0,2.85,1.28c1.36,0,2.17-.68,2.17-1.68s-.75-1.39-1.73-1.82l-1.49-.66A2.91,2.91,0,0,1,783,80.87c0-1.58,1.37-2.75,3.26-2.75a4.26,4.26,0,0,1,3,1.28l-.69.85a3.33,3.33,0,0,0-2.35-1c-1.16,0-1.94.58-1.94,1.51s.91,1.37,1.72,1.71l1.48.64a2.88,2.88,0,0,1,2.13,2.77c0,1.63-1.35,2.94-3.53,2.94a5,5,0,0,1-3.62-1.54"/><polygon class="cls-5" points="657.21 94.08 663.18 94.08 663.18 95.2 658.53 95.2 658.53 98.69 662.47 98.69 662.47 99.8 658.53 99.8 658.53 104.43 657.21 104.43 657.21 94.08"/><rect class="cls-5" x="665.32" y="94.08" width="1.32" height="10.35"/><path class="cls-5" d="M669.78,94.08h1.37l3.74,6.51,1.12,2.14h.06c-.07-1-.17-2.21-.17-3.29V94.08h1.25v10.35h-1.36l-3.74-6.51-1.12-2.14h-.06c.07,1,.17,2.15.17,3.24v5.41h-1.26Z"/><path class="cls-5" d="M682.43,94.08h1.49l3.49,10.35H686l-1.8-5.78c-.37-1.16-.71-2.29-1-3.48h-.06c-.32,1.2-.66,2.32-1,3.48l-1.82,5.78h-1.34Zm-1.66,6.15h4.76v1h-4.76Z"/><path class="cls-5" d="M689.13,94.08h1.36l3.74,6.51,1.12,2.14h.06c-.07-1-.16-2.21-.16-3.29V94.08h1.25v10.35h-1.37l-3.74-6.51-1.12-2.14h-.06c.07,1,.17,2.15.17,3.24v5.41h-1.25Z"/><path class="cls-5" d="M699,99.27c0-3.34,2-5.38,4.59-5.38a3.84,3.84,0,0,1,2.85,1.28l-.72.86a2.83,2.83,0,0,0-2.1-1c-2,0-3.26,1.6-3.26,4.18s1.24,4.23,3.21,4.23A3.07,3.07,0,0,0,706,102.3l.73.83a4,4,0,0,1-3.18,1.49c-2.58,0-4.51-2-4.51-5.35"/><polygon class="cls-5" points="708.96 94.08 714.92 94.08 714.92 95.2 710.28 95.2 710.28 98.44 714.2 98.44 714.2 99.55 710.28 99.55 710.28 103.32 715.08 103.32 715.08 104.43 708.96 104.43 708.96 94.08"/><rect class="cls-5" x="721.06" y="94.08" width="1.32" height="10.35"/><path class="cls-5" d="M725.52,94.08h1.36l3.75,6.51,1.11,2.14h.07c-.07-1-.17-2.21-.17-3.29V94.08h1.25v10.35h-1.36l-3.74-6.51-1.12-2.14h-.07c.07,1,.17,2.15.17,3.24v5.41h-1.25Z"/><rect class="cls-5" x="736.04" y="94.08" width="1.32" height="10.35"/><polygon class="cls-5" points="742.65 95.2 739.52 95.2 739.52 94.08 747.1 94.08 747.1 95.2 743.97 95.2 743.97 104.43 742.65 104.43 742.65 95.2"/><rect class="cls-5" x="749.27" y="94.08" width="1.32" height="10.35"/><path class="cls-5" d="M755.86,94.08h1.49l3.5,10.35h-1.39l-1.81-5.78c-.37-1.16-.7-2.29-1-3.48h-.07c-.32,1.2-.65,2.32-1,3.48l-1.83,5.78h-1.34Zm-1.66,6.15H759v1H754.2Z"/><polygon class="cls-5" points="763.91 95.2 760.78 95.2 760.78 94.08 768.36 94.08 768.36 95.2 765.23 95.2 765.23 104.43 763.91 104.43 763.91 95.2"/><rect class="cls-5" x="770.53" y="94.08" width="1.32" height="10.35"/><path class="cls-5" d="M773.58,94.08H775l1.67,5.6c.37,1.22.62,2.2,1,3.42h.06c.39-1.22.64-2.2,1-3.42l1.65-5.6h1.34l-3.28,10.35h-1.53Z"/><polygon class="cls-5" points="783.37 94.08 789.33 94.08 789.33 95.2 784.69 95.2 784.69 98.44 788.61 98.44 788.61 99.55 784.69 99.55 784.69 103.32 789.49 103.32 789.49 104.43 783.37 104.43 783.37 94.08"/><polygon class="cls-6" points="693.02 28.5 703.31 63.11 703.5 63.11 714.97 28.5 720.98 28.5 732.63 63.11 732.81 63.11 743.02 28.5 749.57 28.5 736.09 71.12 729.36 71.12 717.97 36.61 717.79 36.61 706.59 71.12 699.85 71.12 686.38 28.5 693.02 28.5"/><path class="cls-6" d="M790.58,48.54V49.9a14.24,14.24,0,0,1-.09,1.55H755.16a16.56,16.56,0,0,0,1.27,6,15.37,15.37,0,0,0,3.28,4.92,16,16,0,0,0,4.92,3.32,16.27,16.27,0,0,0,14.43-1,16.76,16.76,0,0,0,5.33-5.14L789,63.2a23.15,23.15,0,0,1-8.42,6.92,23.66,23.66,0,0,1-9.88,2.09,22.71,22.71,0,0,1-8.79-1.68,20.7,20.7,0,0,1-7-4.69,22,22,0,0,1-4.6-7.1,23.32,23.32,0,0,1-1.69-8.93,23.87,23.87,0,0,1,1.64-8.92,21.73,21.73,0,0,1,4.55-7.1,21,21,0,0,1,15.3-6.38A21.68,21.68,0,0,1,779,29.1a18.26,18.26,0,0,1,6.37,4.55,19.52,19.52,0,0,1,3.87,6.69,25,25,0,0,1,1.32,8.2m-6.28-2a15.38,15.38,0,0,0-3.88-10q-3.58-4-10.24-4a14.3,14.3,0,0,0-5.73,1.14,15.2,15.2,0,0,0-4.65,3.1,15,15,0,0,0-3.18,4.46,14.33,14.33,0,0,0-1.37,5.23Z"/><path class="cls-7" d="M844.57,31.92a4,4,0,0,1-1.37,3.14,4.29,4.29,0,0,1-6,0,4.3,4.3,0,0,1,0-6.28,4.29,4.29,0,0,1,6,0,4,4,0,0,1,1.37,3.14"/><rect class="cls-7" x="837.1" y="46.36" width="6.2" height="42.62"/><path class="cls-7" d="M818.89,51.55v52.94H812.7V34.7q0-7.28,3.55-11.47T827.18,19c.78,0,1.64.05,2.55.14a12.29,12.29,0,0,1,2.54.5l-1.08,5.46q-1-.27-2-.45a12.07,12.07,0,0,0-2.28-.19,8.89,8.89,0,0,0-4,.82,5.93,5.93,0,0,0-2.46,2.32,10.38,10.38,0,0,0-1.18,3.51,26.4,26.4,0,0,0-.32,4.28V51.55Z"/><rect class="cls-8" x="794.54" y="46.14" width="14.21" height="5.3"/><rect class="cls-9" x="794.54" y="46.14" width="14.21" height="5.3"/><rect class="cls-7" x="818.25" y="46.14" width="14.91" height="5.3"/></g><path class="cls-10" d="M7.66,127.44V125.8H6.51a.24.24,0,0,1-.17-.06.2.2,0,0,1-.06-.14V125H8.56v2.86a4.72,4.72,0,0,1-2.82.79,3.54,3.54,0,0,1-2.65-1.05,3.76,3.76,0,0,1-1-2.74,3.7,3.7,0,0,1,1-2.74,3.73,3.73,0,0,1,2.77-1.06,7.48,7.48,0,0,1,2.62.54v1.73H8a.2.2,0,0,1-.22-.17s0-.12,0-.26,0-.37-.06-.69l-.39-.11A5.21,5.21,0,0,0,6,122a3.34,3.34,0,0,0-1.27.21,2.56,2.56,0,0,0-.86.58,3,3,0,0,0-.74,2.14,3.11,3.11,0,0,0,.76,2.2,2.62,2.62,0,0,0,2,.78,3.87,3.87,0,0,0,1.84-.43"/><path class="cls-10" d="M12.71,123.46A2.23,2.23,0,0,1,14,124.85a3.29,3.29,0,0,1,.18,1.12,3.33,3.33,0,0,1-.18,1.12,2.31,2.31,0,0,1-.5.85,2.41,2.41,0,0,1-.79.54,2.91,2.91,0,0,1-1,.18,2.87,2.87,0,0,1-1-.18,2.57,2.57,0,0,1-.8-.54,2.78,2.78,0,0,1-.51-.85A3.32,3.32,0,0,1,9.16,126a3.24,3.24,0,0,1,.16-1.12,2.56,2.56,0,0,1,.51-.85,2.27,2.27,0,0,1,.8-.54,2.68,2.68,0,0,1,1-.19,2.71,2.71,0,0,1,1,.19m.12,4a3,3,0,0,0,0-2.93,1.32,1.32,0,0,0-1.16-.51,1.78,1.78,0,0,0-.69.12,1.33,1.33,0,0,0-.47.39,2.16,2.16,0,0,0-.3.63,4,4,0,0,0-.1.85,3.83,3.83,0,0,0,.1.82,2,2,0,0,0,.3.63,1.1,1.1,0,0,0,.47.37,1.68,1.68,0,0,0,.69.15,1.31,1.31,0,0,0,1.16-.52"/><path class="cls-10" d="M19.89,126a3.38,3.38,0,0,1-.19,1.15,2.68,2.68,0,0,1-.49.85,2.37,2.37,0,0,1-.73.52,2.27,2.27,0,0,1-.91.18,12,12,0,0,1-2.33-.29v-6.67l-.23,0-.43-.08a.17.17,0,0,1-.12-.06.33.33,0,0,1,0-.13V121h1.76v3.14a2.51,2.51,0,0,1,.74-.61,2,2,0,0,1,.95-.23,2,2,0,0,1,.84.17,1.67,1.67,0,0,1,.62.51,2.64,2.64,0,0,1,.39.83,4.25,4.25,0,0,1,.15,1.17h0Zm-1.06.82a3,3,0,0,0,.1-.79v-.09a3.47,3.47,0,0,0-.08-.87,1.83,1.83,0,0,0-.27-.6,1,1,0,0,0-.41-.35,1.41,1.41,0,0,0-.57-.11,1.51,1.51,0,0,0-.8.21,2.2,2.2,0,0,0-.62.6v3l.44.1a4,4,0,0,0,.59.07h.27a1.59,1.59,0,0,0,.56-.13,1.26,1.26,0,0,0,.48-.39v0a1.88,1.88,0,0,0,.3-.62"/><path class="cls-10" d="M22.8,128a.22.22,0,0,1,0,.13v.45H20.42v-.45a.24.24,0,0,1,0-.13.14.14,0,0,1,.11-.06l.6-.12V124.1l-.6-.12a.11.11,0,0,1-.11-.06.21.21,0,0,1,0-.13v-.44h1.67v4.49l.59.12a.16.16,0,0,1,.12.06M21,122a.48.48,0,0,1-.06-.24.5.5,0,0,1,.06-.26.84.84,0,0,1,.14-.22.8.8,0,0,1,.21-.15.62.62,0,0,1,.25,0,.66.66,0,0,1,.25,0,.62.62,0,0,1,.2.15.83.83,0,0,1,.15.22.58.58,0,0,1,.06.26.53.53,0,0,1-.06.24.57.57,0,0,1-.15.21.62.62,0,0,1-.2.15.66.66,0,0,1-.25,0,.62.62,0,0,1-.25,0,.8.8,0,0,1-.21-.15A.7.7,0,0,1,21,122"/><path class="cls-10" d="M26.63,123.43a1.78,1.78,0,0,1,.68.44,2,2,0,0,1,.45.74,2.71,2.71,0,0,1,.17,1c0,.16,0,.26,0,.29a.22.22,0,0,1-.19.07H24.22a2.88,2.88,0,0,0,.12.88,1.72,1.72,0,0,0,.36.6,1.39,1.39,0,0,0,.51.37,1.86,1.86,0,0,0,.67.13,2,2,0,0,0,.6-.08,2.26,2.26,0,0,0,.43-.17l.32-.17a.48.48,0,0,1,.2-.08.2.2,0,0,1,.18.09l.26.34a1.43,1.43,0,0,1-.41.35,1.74,1.74,0,0,1-.51.26,4.34,4.34,0,0,1-.56.15,3,3,0,0,1-.57.05,2.59,2.59,0,0,1-1-.19A2.22,2.22,0,0,1,24,128a2.54,2.54,0,0,1-.52-.88,3.8,3.8,0,0,1-.18-1.21,2.83,2.83,0,0,1,.18-1A2.27,2.27,0,0,1,24,124a2.09,2.09,0,0,1,.78-.55,2.37,2.37,0,0,1,1-.2,2.32,2.32,0,0,1,.87.16m-1.89.9a1.86,1.86,0,0,0-.48,1.08h2.85a1.72,1.72,0,0,0-.09-.58,1.33,1.33,0,0,0-.25-.47,1.5,1.5,0,0,0-.43-.3,1.41,1.41,0,0,0-.57-.11h0a1.37,1.37,0,0,0-1,.38"/><path class="cls-10" d="M31.78,123.25a1.3,1.3,0,0,1,.71.19l-.11.69c0,.09-.07.14-.14.14a1,1,0,0,1-.25-.06,1.67,1.67,0,0,0-.42,0,1.46,1.46,0,0,0-1.35,1.1v2.59l.59.12a.17.17,0,0,1,.16.19v.44H28.55v-.44a.18.18,0,0,1,.16-.19l.59-.12v-3.74a5.67,5.67,0,0,1-.59-.13.17.17,0,0,1-.16-.19v-.44h1.28a.28.28,0,0,1,.2.06.43.43,0,0,1,.08.19l.06.82h0a1.78,1.78,0,0,1,1.6-1.17"/><path class="cls-10" d="M36.39,123.26a1.6,1.6,0,0,1,1.31.55,2.23,2.23,0,0,1,.44,1.44v2.58a5.67,5.67,0,0,1,.59.13.18.18,0,0,1,.17.19v.45H37.22v-3.34c0-.84-.37-1.27-1.1-1.27a1.9,1.9,0,0,0-1.43.74v3.11l.6.13a.17.17,0,0,1,.16.19v.44H33v-.44a.17.17,0,0,1,.15-.19l.6-.11v-3.75a5.5,5.5,0,0,1-.6-.12.18.18,0,0,1-.15-.2v-.44h1.29a.26.26,0,0,1,.25.19l.08.57h0a2.33,2.33,0,0,1,1.74-.84"/><path class="cls-10" d="M42.94,123.46a2.32,2.32,0,0,1,.79.54,2.16,2.16,0,0,1,.5.85,3.29,3.29,0,0,1,.18,1.12,3.33,3.33,0,0,1-.18,1.12,2.31,2.31,0,0,1-.5.85,2.64,2.64,0,0,1-.79.54,2.93,2.93,0,0,1-1,.18,2.86,2.86,0,0,1-1-.18,2.46,2.46,0,0,1-.8-.54,2.6,2.6,0,0,1-.51-.85,3.32,3.32,0,0,1-.16-1.12,3.24,3.24,0,0,1,.16-1.12,2.4,2.4,0,0,1,.51-.85,2.18,2.18,0,0,1,.8-.54,2.66,2.66,0,0,1,1-.19,2.73,2.73,0,0,1,1,.19m.12,4a3,3,0,0,0,0-2.93,1.34,1.34,0,0,0-1.17-.51,1.69,1.69,0,0,0-.68.12,1.25,1.25,0,0,0-.47.39,2.16,2.16,0,0,0-.3.63,4,4,0,0,0-.1.85,3.83,3.83,0,0,0,.1.82,2,2,0,0,0,.3.63,1.1,1.1,0,0,0,.47.37,1.64,1.64,0,0,0,.68.15,1.33,1.33,0,0,0,1.17-.52"/><path class="cls-10" d="M50.8,123.87v-2.15l-.69-.13a.17.17,0,0,1-.16-.19V121h1.76v6.88l.61.13a.17.17,0,0,1,.14.18v.46H51.18a.26.26,0,0,1-.26-.2l-.07-.63a2.25,2.25,0,0,1-1.77.89,1.73,1.73,0,0,1-1.45-.68,3.25,3.25,0,0,1-.54-2A3,3,0,0,1,47.7,124a2,2,0,0,1,1.67-.79,1.85,1.85,0,0,1,1.43.62m0,3.26V124.6a1.42,1.42,0,0,0-1.21-.62,1.35,1.35,0,0,0-1.15.51A2.48,2.48,0,0,0,48,126c0,1,.26,1.59.77,1.82a1.41,1.41,0,0,0,.57.11h0a1.72,1.72,0,0,0,1.41-.8"/><path class="cls-10" d="M56.24,123.43a1.78,1.78,0,0,1,.68.44,2,2,0,0,1,.45.74,2.71,2.71,0,0,1,.17,1,.69.69,0,0,1,0,.29.22.22,0,0,1-.19.07H53.83a2.88,2.88,0,0,0,.12.88,1.72,1.72,0,0,0,.36.6,1.39,1.39,0,0,0,.51.37,1.86,1.86,0,0,0,.67.13,2,2,0,0,0,.6-.08,2.26,2.26,0,0,0,.43-.17l.32-.17a.48.48,0,0,1,.2-.08.2.2,0,0,1,.18.09l.26.34a1.35,1.35,0,0,1-.42.35,1.6,1.6,0,0,1-.5.26,4.34,4.34,0,0,1-.56.15,3,3,0,0,1-.58.05,2.54,2.54,0,0,1-1-.19,2.22,2.22,0,0,1-.8-.54,2.54,2.54,0,0,1-.52-.88,3.8,3.8,0,0,1-.18-1.21,3.06,3.06,0,0,1,.17-1,2.43,2.43,0,0,1,.49-.83,2.09,2.09,0,0,1,.78-.55,2.37,2.37,0,0,1,1-.2,2.32,2.32,0,0,1,.87.16m-1.89.9a1.86,1.86,0,0,0-.48,1.08h2.85a1.72,1.72,0,0,0-.09-.58,1.33,1.33,0,0,0-.25-.47,1.5,1.5,0,0,0-.43-.3,1.41,1.41,0,0,0-.57-.11h0a1.37,1.37,0,0,0-1,.38"/><path class="cls-10" d="M62.8,128.15v.45H60.37v-.45a.17.17,0,0,1,.17-.19l.57-.12v-6.12l-.57-.13a.17.17,0,0,1-.17-.19V121h1.68v6.87c.32.06.51.11.58.13a.18.18,0,0,1,.17.19"/><path class="cls-10" d="M68.05,128a.17.17,0,0,1,0,.12v.45H67a.64.64,0,0,1-.22,0s-.08-.07-.1-.17l-.1-.5-.42.34a1.75,1.75,0,0,1-.42.26,2,2,0,0,1-.45.15,2.18,2.18,0,0,1-.56,0,1.77,1.77,0,0,1-.56-.09,1.55,1.55,0,0,1-.47-.25,1.24,1.24,0,0,1-.31-.44,1.5,1.5,0,0,1-.11-.62,1.22,1.22,0,0,1,.16-.6,1.57,1.57,0,0,1,.56-.52,3.66,3.66,0,0,1,1-.37,7.06,7.06,0,0,1,1.51-.13v-.41a1.39,1.39,0,0,0-.27-.93.94.94,0,0,0-.77-.33,1.63,1.63,0,0,0-.58.1,1.76,1.76,0,0,0-.39.19l-.14.08-.16.1a.43.43,0,0,1-.41,0,.38.38,0,0,1-.09-.13l-.18-.29a3,3,0,0,1,.94-.62,2.76,2.76,0,0,1,1.12-.21,1.89,1.89,0,0,1,.79.15,1.69,1.69,0,0,1,.57.39,1.55,1.55,0,0,1,.35.62,2.48,2.48,0,0,1,.11.81v2.63l.52.11v0a.12.12,0,0,1,.11.07m-2.62-1.7a3.44,3.44,0,0,0-.73.22,1,1,0,0,0-.41.31.69.69,0,0,0-.12.39.91.91,0,0,0,.07.35.53.53,0,0,0,.19.25.87.87,0,0,0,.27.14A1.33,1.33,0,0,0,65,128a1.77,1.77,0,0,0,.82-.19,1.69,1.69,0,0,0,.34-.23,3.23,3.23,0,0,0,.31-.29v-1.07a6.26,6.26,0,0,0-1.08.07"/><path class="cls-10" d="M77.21,128a.25.25,0,0,1,0,.12v.46H76.17a.43.43,0,0,1-.4-.22l-1.92-2.65a.66.66,0,0,0-.19-.18.58.58,0,0,0-.31-.06h-.66v2.34l.58.13a.23.23,0,0,1,.12.06.17.17,0,0,1,0,.12v.45H70.94v-.45a.17.17,0,0,1,0-.12.24.24,0,0,1,.11-.06l.6-.13v-5.91l-.6-.12a.41.41,0,0,1-.11-.07.16.16,0,0,1,0-.12v-.45h2.74a4.57,4.57,0,0,1,1.23.14,2.44,2.44,0,0,1,.84.41,1.79,1.79,0,0,1,.51.66,2.28,2.28,0,0,1,.15.86,2.09,2.09,0,0,1-.12.72,2.57,2.57,0,0,1-.36.62,1.85,1.85,0,0,1-.58.47,2.84,2.84,0,0,1-.76.3,1.37,1.37,0,0,1,.33.31l1.6,2.2.59.11h0a.23.23,0,0,1,.12.06m-2.81-3.36a1.71,1.71,0,0,0,.56-.31,1.28,1.28,0,0,0,.34-.46,1.4,1.4,0,0,0,.11-.6,1.17,1.17,0,0,0-.43-1,2.06,2.06,0,0,0-1.3-.34h-1v2.8h.94a2.55,2.55,0,0,0,.78-.1"/><path class="cls-10" d="M80.75,123.43a1.78,1.78,0,0,1,.68.44,2,2,0,0,1,.45.74,2.71,2.71,0,0,1,.17,1c0,.16,0,.26,0,.29s-.09.07-.19.07H78.34a2.59,2.59,0,0,0,.13.88,1.68,1.68,0,0,0,.35.6,1.39,1.39,0,0,0,.51.37,1.86,1.86,0,0,0,.67.13,2,2,0,0,0,.6-.08,2.26,2.26,0,0,0,.43-.17l.32-.17a.46.46,0,0,1,.21-.08.2.2,0,0,1,.17.09l.26.34a1.43,1.43,0,0,1-.41.35,1.74,1.74,0,0,1-.51.26,4.34,4.34,0,0,1-.56.15,3,3,0,0,1-.57.05,2.59,2.59,0,0,1-1-.19,2.31,2.31,0,0,1-.8-.54,2.37,2.37,0,0,1-.51-.88,3.53,3.53,0,0,1-.19-1.21,2.83,2.83,0,0,1,.18-1,2.23,2.23,0,0,1,1.26-1.38,2.37,2.37,0,0,1,1-.2,2.32,2.32,0,0,1,.87.16m-1.89.9a1.86,1.86,0,0,0-.48,1.08h2.85a1.72,1.72,0,0,0-.09-.58,1.33,1.33,0,0,0-.25-.47,1.6,1.6,0,0,0-.42-.3,1.46,1.46,0,0,0-.58-.11h0a1.38,1.38,0,0,0-1,.38"/><path class="cls-10" d="M85.87,123.25a1.73,1.73,0,0,1,1.45.69,3.28,3.28,0,0,1,.54,2,3,3,0,0,1-.6,1.94,2,2,0,0,1-1.6.79,1.91,1.91,0,0,1-1.51-.61v1.55l.28.07.3.06a.19.19,0,0,1,.17.2v.44H82.47v-.44a.18.18,0,0,1,.16-.2l.58-.12v-5.51l-.58-.13a.17.17,0,0,1-.16-.19v-.44h1.31a.23.23,0,0,1,.24.19l.07.62h0a2.22,2.22,0,0,1,1.76-.91M85.35,128a1.38,1.38,0,0,0,1.16-.52,2.46,2.46,0,0,0,.39-1.5,2.53,2.53,0,0,0-.34-1.45,1.12,1.12,0,0,0-1-.49,1.71,1.71,0,0,0-1.41.79v2.54a1.43,1.43,0,0,0,1.2.63"/><path class="cls-10" d="M92.42,127.23v-3.11l-.58-.13a.17.17,0,0,1-.17-.19v-.44h1.68v4.5l.58.12c.11,0,.17.08.17.18v.45H92.79a.24.24,0,0,1-.25-.2l-.06-.55a2.29,2.29,0,0,1-1.74.83,1.66,1.66,0,0,1-1.32-.54A2.21,2.21,0,0,1,89,126.7v-2.59a4.09,4.09,0,0,1-.59-.13c-.1,0-.15-.08-.15-.19v-.43H89.9v3.33a1.42,1.42,0,0,0,.28.94A1,1,0,0,0,91,128h0a1.89,1.89,0,0,0,1.41-.73m-1.06-4.69a.37.37,0,0,1-.17,0h-.55l.76-1.27a.49.49,0,0,1,.16-.16.37.37,0,0,1,.25-.06h.9l-1.21,1.34a.33.33,0,0,1-.14.1"/><path class="cls-10" d="M100,126a3.38,3.38,0,0,1-.19,1.15,2.68,2.68,0,0,1-.49.85,2.37,2.37,0,0,1-.73.52,2.27,2.27,0,0,1-.91.18,12,12,0,0,1-2.33-.29v-6.67l-.23,0-.43-.08a.17.17,0,0,1-.12-.06.33.33,0,0,1,0-.13V121h1.76v3.14a2.51,2.51,0,0,1,.74-.61,2,2,0,0,1,1-.23,2,2,0,0,1,.84.17,1.67,1.67,0,0,1,.62.51,2.88,2.88,0,0,1,.39.83A4.27,4.27,0,0,1,100,126h0Zm-1.06.82A3,3,0,0,0,99,126v-.09a3.47,3.47,0,0,0-.08-.87,1.83,1.83,0,0,0-.27-.6,1.1,1.1,0,0,0-.41-.35,1.41,1.41,0,0,0-.57-.11,1.51,1.51,0,0,0-.8.21,2.2,2.2,0,0,0-.62.6v3l.44.1a3.81,3.81,0,0,0,.59.07h.27a1.59,1.59,0,0,0,.56-.13,1.26,1.26,0,0,0,.48-.39v0a1.88,1.88,0,0,0,.3-.62"/><path class="cls-10" d="M103,128.15v.45h-2.43v-.45a.18.18,0,0,1,.17-.19l.58-.12v-6.12l-.58-.13a.18.18,0,0,1-.17-.19V121h1.69v6.87l.58.13a.17.17,0,0,1,.16.19"/><path class="cls-10" d="M105.91,128a.22.22,0,0,1,0,.13v.45h-2.42v-.45a.18.18,0,0,1,0-.13.14.14,0,0,1,.11-.06l.6-.12V124.1l-.6-.12a.11.11,0,0,1-.11-.06.17.17,0,0,1,0-.13v-.44h1.67v4.49l.59.12a.17.17,0,0,1,.12.06M104.14,122a.6.6,0,0,1,0-.24.63.63,0,0,1,0-.26,1.17,1.17,0,0,1,.15-.22.57.57,0,0,1,.21-.15.62.62,0,0,1,.25,0,.61.61,0,0,1,.45.2.83.83,0,0,1,.15.22.58.58,0,0,1,.06.26.53.53,0,0,1-.06.24.66.66,0,0,1-.6.41.62.62,0,0,1-.25,0,.57.57,0,0,1-.21-.15.71.71,0,0,1-.15-.21"/><path class="cls-10" d="M108.74,128.67a2.12,2.12,0,0,1-1.64-.71,3.26,3.26,0,0,1,0-3.93,2.29,2.29,0,0,1,1.84-.76,4.71,4.71,0,0,1,1.55.37V125H110a.15.15,0,0,1-.17-.14,3.76,3.76,0,0,1,0-.4l0-.34-.23-.06-.15,0a3.68,3.68,0,0,0-.58-.05,1.4,1.4,0,0,0-.57.14,1.58,1.58,0,0,0-.49.38,2.38,2.38,0,0,0-.39,1.45,2.41,2.41,0,0,0,.41,1.48,1.36,1.36,0,0,0,1.11.52,1.69,1.69,0,0,0,1.15-.44.32.32,0,0,1,.21-.08.2.2,0,0,1,.17.08l.24.34a2.33,2.33,0,0,1-1.94.81"/><path class="cls-10" d="M115.91,128a.21.21,0,0,1,0,.12v.45h-1.08a.69.69,0,0,1-.22,0,.23.23,0,0,1-.1-.17l-.1-.5-.42.34a1.51,1.51,0,0,1-.41.26,2.06,2.06,0,0,1-.46.15,2.14,2.14,0,0,1-.56,0,1.77,1.77,0,0,1-.56-.09,1.55,1.55,0,0,1-.47-.25,1.22,1.22,0,0,1-.3-.44,1.34,1.34,0,0,1-.12-.62,1.13,1.13,0,0,1,.17-.6,1.57,1.57,0,0,1,.56-.52,3.59,3.59,0,0,1,1-.37,7.16,7.16,0,0,1,1.52-.13v-.41a1.4,1.4,0,0,0-.28-.93.93.93,0,0,0-.77-.33,1.61,1.61,0,0,0-.57.1,2.17,2.17,0,0,0-.4.19l-.14.08-.16.1a.35.35,0,0,1-.24.08.32.32,0,0,1-.16,0,.41.41,0,0,1-.1-.13l-.17-.29a3.09,3.09,0,0,1,.93-.62,2.76,2.76,0,0,1,1.12-.21,1.86,1.86,0,0,1,.79.15,1.6,1.6,0,0,1,.93,1,2.8,2.8,0,0,1,.1.81v2.63a4.86,4.86,0,0,1,.53.11v0a.15.15,0,0,1,.11.07m-2.62-1.7a3.12,3.12,0,0,0-.73.22,1,1,0,0,0-.41.31.63.63,0,0,0-.13.39,1.15,1.15,0,0,0,.07.35.6.6,0,0,0,.19.25.87.87,0,0,0,.27.14,1.4,1.4,0,0,0,.34.05,2.28,2.28,0,0,0,.44-.05,2.13,2.13,0,0,0,.38-.14,1.49,1.49,0,0,0,.35-.23,3.47,3.47,0,0,0,.3-.29v-1.07a6.21,6.21,0,0,0-1.07.07"/><polygon class="cls-11" points="24.77 10.8 26.13 14.97 30.5 14.97 26.96 17.54 28.31 21.7 24.77 19.13 21.24 21.7 22.59 17.54 19.05 14.97 23.42 14.97 24.77 10.8"/><polygon class="cls-11" points="43.82 21.61 45.18 25.77 49.55 25.77 46.01 28.34 47.36 32.5 43.82 29.93 40.28 32.5 41.64 28.34 38.1 25.77 42.47 25.77 43.82 21.61"/><polygon class="cls-11" points="5.73 21.61 7.08 25.77 11.45 25.77 7.91 28.34 9.26 32.5 5.73 29.93 2.19 32.5 3.54 28.34 0 25.77 4.37 25.77 5.73 21.61"/><polygon class="cls-11" points="43.82 0 45.18 4.16 49.55 4.16 46.01 6.73 47.36 10.89 43.82 8.32 40.28 10.89 41.64 6.73 38.1 4.16 42.47 4.16 43.82 0"/><polygon class="cls-11" points="5.73 0 7.08 4.16 11.45 4.16 7.91 6.73 9.26 10.89 5.73 8.32 2.19 10.89 3.54 6.73 0 4.16 4.37 4.16 5.73 0"/><polygon class="cls-11" points="81.83 20.04 68.28 20.04 68.28 32.51 59.12 32.51 59.12 0.04 68.28 0.04 68.28 12.12 81.83 12.12 81.83 0.04 91 0.04 91 32.51 81.83 32.51 81.83 20.04"/><path class="cls-10" d="M6.52,54.89c-2.63-.72-3.9-2.24-3.9-4.57,0-2.93,2.31-5.27,6.91-5.27a14.37,14.37,0,0,1,6.11,1.34l-1.19,3.7a10.35,10.35,0,0,0-5.09-1.46c-1.72,0-2.49.57-2.49,1.39s.5,1,1.54,1.34l3,.9c3.11.91,4.52,2.33,4.52,4.67,0,3.25-2.73,5.48-6.95,5.48A13.72,13.72,0,0,1,2.9,61l1-3.78A9.77,9.77,0,0,0,9,58.84c1.69,0,2.61-.7,2.61-1.62,0-.74-.74-1.14-2-1.49Z"/><path class="cls-10" d="M30.74,60.75a8.77,8.77,0,0,1-5.51,1.76c-4.9,0-7.13-2.95-7.13-6.8A6.62,6.62,0,0,1,25,48.83c3.95,0,5.84,2.43,5.84,5.41a11.19,11.19,0,0,1-.27,2.49H22.25c.24,1.51,1.31,2.48,3.23,2.48A7,7,0,0,0,29.2,58Zm-3.53-7c0-1-.69-1.79-2.23-1.79a2.52,2.52,0,0,0-2.66,2.08h4.89Z"/><path class="cls-10" d="M35,53.65c0-.67-.12-1.2-.79-1.2a3.17,3.17,0,0,0-1.27.33l-.12-3.28A7.69,7.69,0,0,1,35.86,49a2.81,2.81,0,0,1,3,1.91A3.25,3.25,0,0,1,42,49a3.86,3.86,0,0,1,2.31.62l-.52,3.8a4.78,4.78,0,0,0-2.48-.57c-1.54,0-2.09,1.24-2.21,2.59v6.78H35Z"/><path class="cls-10" d="M47.41,53.65c0-.7-.13-1.2-.77-1.2a2.67,2.67,0,0,0-1.27.33l-.12-3.28A7.86,7.86,0,0,1,48.33,49c2.06,0,3.25,1,3.25,3.7V56c0,1.76.62,2.58,2,2.58s2.34-.91,2.34-2.88a15.94,15.94,0,0,0-1.59-6.55h4.42A19.35,19.35,0,0,1,60.05,56c0,3.85-2.31,6.43-6.51,6.43s-6.13-2.21-6.13-5.76Z"/><path class="cls-10" d="M65.44,43.64c1.34,0,2.23.49,2.23,1.88s-.89,1.89-2.23,1.89-2.29-.5-2.29-1.89S64.07,43.64,65.44,43.64ZM67.5,57.72c0,.65.12,1.19.8,1.19a2.51,2.51,0,0,0,1.21-.35l.18,3.31a8.47,8.47,0,0,1-3.11.54c-2.06,0-3.25-1-3.25-3.67V49.18H67.5Z"/><path class="cls-10" d="M84.27,60.73a9.11,9.11,0,0,1-5.57,1.78c-4.89,0-7.1-2.9-7.1-6.8a6.57,6.57,0,0,1,6.88-6.88c3.85,0,5.84,2.11,6,5.16l-3.7.82c-.1-1.44-.67-2.33-2.24-2.33s-2.6,1.32-2.6,3.1a3.05,3.05,0,0,0,3.3,3.28,6.21,6.21,0,0,0,3.48-1.36Z"/><path class="cls-10" d="M89.38,43.64c1.34,0,2.24.49,2.24,1.88s-.9,1.89-2.24,1.89-2.28-.5-2.28-1.89S88,43.64,89.38,43.64Zm2.06,14.08c0,.65.13,1.19.8,1.19a2.6,2.6,0,0,0,1.22-.35l.17,3.31a8.45,8.45,0,0,1-3.1.54c-2.07,0-3.26-1-3.26-3.67V49.18h4.17Z"/><path class="cls-10" d="M102.47,48.83a6.84,6.84,0,1,1-7,6.88A6.75,6.75,0,0,1,102.47,48.83Zm0,9.91a3.06,3.06,0,1,0-3-3A2.93,2.93,0,0,0,102.47,58.74Z"/><path class="cls-10" d="M123.29,51.91V62.17h-4.18V45.28h3.63l8.5,10.25V45.28h4.17V62.17h-3.6Z"/><path class="cls-10" d="M152.32,57.72c0,.65.18,1.19.8,1.19a2.72,2.72,0,0,0,1.24-.35l.15,3.31a9.16,9.16,0,0,1-3.11.54,2.77,2.77,0,0,1-3-1.86,5.09,5.09,0,0,1-4,1.84c-3.55,0-6-2.78-6-6.68s2.43-6.76,6-6.76a4.87,4.87,0,0,1,3.68,1.37V49.18h4.17Zm-4.17-4.2a3.76,3.76,0,0,0-2.48-.94,2.83,2.83,0,0,0-2.94,3.13,2.83,2.83,0,0,0,2.94,3.08,3.8,3.8,0,0,0,2.48-.95Z"/><path class="cls-10" d="M169,60.73a9.1,9.1,0,0,1-5.56,1.78c-4.9,0-7.11-2.9-7.11-6.8a6.57,6.57,0,0,1,6.88-6.88c3.85,0,5.84,2.11,6,5.16l-3.7.82c-.1-1.44-.67-2.33-2.23-2.33s-2.61,1.32-2.61,3.1a3.05,3.05,0,0,0,3.3,3.28,6.21,6.21,0,0,0,3.48-1.36Z"/><path class="cls-10" d="M174.16,43.64c1.34,0,2.23.49,2.23,1.88s-.89,1.89-2.23,1.89-2.29-.5-2.29-1.89S172.79,43.64,174.16,43.64Zm2.06,14.08c0,.65.12,1.19.79,1.19a2.6,2.6,0,0,0,1.22-.35l.17,3.31a8.45,8.45,0,0,1-3.1.54c-2.06,0-3.26-1-3.26-3.67V49.18h4.18Z"/><path class="cls-10" d="M187.24,48.83a6.84,6.84,0,1,1-7,6.88A6.75,6.75,0,0,1,187.24,48.83Zm0,9.91a3.06,3.06,0,1,0-3-3A2.93,2.93,0,0,0,187.24,58.74Z"/><path class="cls-10" d="M201.43,49.18v1.44A5.3,5.3,0,0,1,205.38,49c3.35,0,4.77,2.56,4.77,5.74v3c0,.65.15,1.19.79,1.19a3.12,3.12,0,0,0,1.27-.35l.12,3.31a8.19,8.19,0,0,1-3.08.54c-2.09,0-3.28-1-3.28-3.67V55.39c0-1.67-.77-2.59-2.18-2.59a2.74,2.74,0,0,0-2.36,1.62v7.75h-4.18v-13Z"/><path class="cls-10" d="M227.78,57.72c0,.65.17,1.19.8,1.19a2.76,2.76,0,0,0,1.24-.35l.15,3.31a9.21,9.21,0,0,1-3.11.54,2.76,2.76,0,0,1-3-1.86,5.09,5.09,0,0,1-4,1.84c-3.55,0-6-2.78-6-6.68s2.43-6.76,6-6.76a4.87,4.87,0,0,1,3.68,1.37V49.18h4.17Zm-4.17-4.2a3.76,3.76,0,0,0-2.49-.94,2.82,2.82,0,0,0-2.93,3.13,2.82,2.82,0,0,0,2.93,3.08,3.83,3.83,0,0,0,2.49-.95Z"/><path class="cls-10" d="M236.7,44.53V57.65c0,.77.22,1.26.87,1.26a3.13,3.13,0,0,0,1.31-.35l.15,3.31a9.71,9.71,0,0,1-3.15.54c-2.06,0-3.36-1-3.36-3.72V44.53Z"/><path class="cls-10" d="M260.89,44.53V57.72c0,.67.15,1.19.8,1.19a3.57,3.57,0,0,0,1.24-.35l.15,3.31a9.07,9.07,0,0,1-3.11.54,2.78,2.78,0,0,1-3-1.76,4.8,4.8,0,0,1-4,1.76c-3.53,0-6-2.83-6-6.75S249.49,49,253,49a5.44,5.44,0,0,1,3.7,1.34V44.53Zm-6.66,14.26a4,4,0,0,0,2.49-.92V53.52a3.81,3.81,0,0,0-2.49-.94,2.82,2.82,0,0,0-2.95,3.08A2.84,2.84,0,0,0,254.23,58.79Z"/><path class="cls-10" d="M277.56,60.75A8.82,8.82,0,0,1,272,62.51c-4.89,0-7.13-2.95-7.13-6.8a6.62,6.62,0,0,1,6.91-6.88c3.95,0,5.84,2.43,5.84,5.41a11.12,11.12,0,0,1-.28,2.49h-8.32a2.91,2.91,0,0,0,3.23,2.48A7.07,7.07,0,0,0,276,58Zm-3.53-7c0-1-.7-1.79-2.24-1.79a2.5,2.5,0,0,0-2.65,2.08H274Z"/><path class="cls-10" d="M3.57,85.37V68.48H17.13V72.1H7.54V75h7.78v3.5H7.54v3.23h9.59v3.63Z"/><path class="cls-10" d="M24.41,72.38v1.29a5.35,5.35,0,0,1,3.92-1.54c2.06,0,3.38.72,4.05,2.21a5.31,5.31,0,0,1,4.47-2.19c3.36,0,4.72,2.56,4.72,5.74v3c0,.65.13,1.19.75,1.19a3.35,3.35,0,0,0,1.26-.34l.18,3.3a9.41,9.41,0,0,1-3.13.55c-2,0-3.23-1-3.23-3.68V78.59c0-1.67-.77-2.59-2.19-2.59A2.39,2.39,0,0,0,33,77.39v8H28.85V78.56c0-1.64-.72-2.56-2.16-2.56a2.5,2.5,0,0,0-2.28,1.44v7.93H20.23v-13Z"/><path class="cls-10" d="M47.16,90V76.85c0-.7-.13-1.2-.8-1.2A2.5,2.5,0,0,0,45.1,76L45,72.67a9,9,0,0,1,3.08-.54,2.79,2.79,0,0,1,3,1.76,4.83,4.83,0,0,1,4-1.74c3.55,0,6,2.81,6,6.76s-2.46,6.71-6,6.71a5.29,5.29,0,0,1-3.68-1.35V90Zm4.17-13.32v4.35a3.9,3.9,0,0,0,2.49.92,3.11,3.11,0,0,0,0-6.21A3.76,3.76,0,0,0,51.33,76.72Z"/><path class="cls-10" d="M65,76.85c0-.67-.12-1.2-.79-1.2A3.12,3.12,0,0,0,63,76l-.12-3.28a7.69,7.69,0,0,1,3.08-.55,2.81,2.81,0,0,1,3,1.91,3.25,3.25,0,0,1,3.15-1.91,3.86,3.86,0,0,1,2.31.62l-.52,3.8A4.78,4.78,0,0,0,71.43,76c-1.54,0-2.09,1.24-2.22,2.59v6.78H65Z"/><path class="cls-10" d="M88.47,84A8.82,8.82,0,0,1,83,85.71c-4.89,0-7.13-2.95-7.13-6.8A6.62,6.62,0,0,1,82.73,72c4,0,5.83,2.43,5.83,5.41a11.12,11.12,0,0,1-.27,2.49H80a2.91,2.91,0,0,0,3.23,2.48,6.92,6.92,0,0,0,3.72-1.24Zm-3.53-7c0-1-.7-1.79-2.24-1.79A2.52,2.52,0,0,0,80,77.29h4.9Z"/><path class="cls-10" d="M95.84,72.38v1.44a5.33,5.33,0,0,1,4-1.67c3.35,0,4.77,2.56,4.77,5.74v3c0,.65.15,1.19.79,1.19a3.26,3.26,0,0,0,1.27-.34l.13,3.3a8.24,8.24,0,0,1-3.08.55c-2.09,0-3.28-1-3.28-3.68V78.59c0-1.67-.77-2.59-2.19-2.59a2.74,2.74,0,0,0-2.36,1.62v7.75H91.67v-13Z"/><path class="cls-10" d="M122.19,67.73V80.92c0,.67.15,1.19.8,1.19a3.63,3.63,0,0,0,1.24-.34l.15,3.3a9,9,0,0,1-3.1.55,2.77,2.77,0,0,1-3-1.77,4.8,4.8,0,0,1-4,1.77c-3.53,0-6-2.84-6-6.76s2.46-6.71,6-6.71a5.42,5.42,0,0,1,3.7,1.34V67.73ZM115.54,82a3.94,3.94,0,0,0,2.48-.92V76.72a3.79,3.79,0,0,0-2.48-.94,3.11,3.11,0,0,0,0,6.21Z"/><path class="cls-10" d="M129.1,66.84c1.34,0,2.23.49,2.23,1.88s-.89,1.89-2.23,1.89-2.29-.49-2.29-1.89S127.73,66.84,129.1,66.84Zm2.06,14.08c0,.65.12,1.19.8,1.19a2.65,2.65,0,0,0,1.21-.34l.18,3.3a8.38,8.38,0,0,1-3.11.55c-2.06,0-3.25-1.05-3.25-3.68V72.38h4.17Z"/><path class="cls-10" d="M140.23,72.38v1.29a5.35,5.35,0,0,1,3.92-1.54c2.06,0,3.38.72,4,2.21a5.29,5.29,0,0,1,4.47-2.19c3.35,0,4.72,2.56,4.72,5.74v3c0,.65.12,1.19.75,1.19a3.35,3.35,0,0,0,1.26-.34l.18,3.3a9.41,9.41,0,0,1-3.13.55c-2,0-3.23-1-3.23-3.68V78.59c0-1.67-.77-2.59-2.19-2.59a2.39,2.39,0,0,0-2.18,1.39v8h-4.18V78.56c0-1.64-.72-2.56-2.16-2.56a2.49,2.49,0,0,0-2.28,1.44v7.93h-4.18v-13Z"/><path class="cls-10" d="M164,66.84c1.34,0,2.24.49,2.24,1.88s-.9,1.89-2.24,1.89-2.28-.49-2.28-1.89S162.65,66.84,164,66.84Zm2.06,14.08c0,.65.13,1.19.8,1.19a2.65,2.65,0,0,0,1.21-.34l.18,3.3a8.38,8.38,0,0,1-3.11.55c-2.06,0-3.25-1.05-3.25-3.68V72.38h4.17Z"/><path class="cls-10" d="M182.8,84a8.78,8.78,0,0,1-5.52,1.76c-4.89,0-7.12-2.95-7.12-6.8a6.62,6.62,0,0,1,6.9-6.88c3.95,0,5.84,2.43,5.84,5.41a11.74,11.74,0,0,1-.27,2.49H174.3a2.91,2.91,0,0,0,3.23,2.48,7,7,0,0,0,3.73-1.24Zm-3.53-7c0-1-.69-1.79-2.23-1.79a2.52,2.52,0,0,0-2.66,2.08h4.89Z"/><path class="cls-10" d="M190.18,72.38v1.44a5.3,5.3,0,0,1,3.95-1.67c3.35,0,4.76,2.56,4.76,5.74v3c0,.65.15,1.19.8,1.19a3.3,3.3,0,0,0,1.27-.34l.12,3.3a8.16,8.16,0,0,1-3.08.55c-2.09,0-3.28-1-3.28-3.68V78.59c0-1.67-.77-2.59-2.18-2.59a2.74,2.74,0,0,0-2.36,1.62v7.75H186v-13Z"/><path class="cls-10" d="M208.43,69.07v3.31h4.5V75.6h-4.5v4.53c0,1.31.55,1.86,1.54,1.86a4.59,4.59,0,0,0,2.44-.87l1.26,3.18a9.61,9.61,0,0,1-5,1.32c-2.71,0-4.37-1.64-4.37-4.77V75.6h-2.21V72.38h2.33l.52-3.31Z"/><path class="cls-10" d="M222.32,72a6.84,6.84,0,1,1-7,6.88A6.75,6.75,0,0,1,222.32,72Zm0,9.91a3.06,3.06,0,1,0-3-3A2.93,2.93,0,0,0,222.32,81.94Z"/><path class="cls-10" d="M241.34,72.38l3,8.44,3-8.44h4.2l-5.17,12.81c-1.39,3.53-2.78,5.1-5.86,5.1a5.87,5.87,0,0,1-3-.87l.59-3.18a5.29,5.29,0,0,0,2.31.67c1,0,1.49-.52,1.92-1.44l.22-.53-5.79-12.56Z"/><path class="cls-10" d="M272.84,67.73V80.92c0,.67.15,1.19.79,1.19a3.63,3.63,0,0,0,1.24-.34l.15,3.3a8.93,8.93,0,0,1-3.1.55,2.77,2.77,0,0,1-3-1.77,4.8,4.8,0,0,1-4,1.77c-3.52,0-6-2.84-6-6.76s2.46-6.71,6-6.71a5.42,5.42,0,0,1,3.7,1.34V67.73ZM266.18,82a3.94,3.94,0,0,0,2.48-.92V76.72a3.79,3.79,0,0,0-2.48-.94,3.11,3.11,0,0,0,0,6.21Z"/><path class="cls-10" d="M289.5,84A8.77,8.77,0,0,1,284,85.71c-4.89,0-7.13-2.95-7.13-6.8A6.62,6.62,0,0,1,283.77,72c4,0,5.83,2.43,5.83,5.41a11.12,11.12,0,0,1-.27,2.49H281a2.9,2.9,0,0,0,3.23,2.48A7,7,0,0,0,288,81.17ZM286,77c0-1-.7-1.79-2.24-1.79a2.52,2.52,0,0,0-2.66,2.08H286Z"/><path class="cls-10" d="M3.57,91.68H12c3.36,0,6.24,2,6.24,6.26A6,6,0,0,1,12,104.1H7.74v4.47H3.57ZM7.74,95.3v5.17h3.55a2.59,2.59,0,1,0,0-5.17Z"/><path class="cls-10" d="M32.55,107.15A8.77,8.77,0,0,1,27,108.92c-4.89,0-7.13-3-7.13-6.81a6.62,6.62,0,0,1,6.91-6.88c3.95,0,5.83,2.43,5.83,5.41a11.12,11.12,0,0,1-.27,2.49H24.06a2.91,2.91,0,0,0,3.23,2.48A7,7,0,0,0,31,104.37Zm-3.52-7c0-1-.7-1.79-2.24-1.79a2.52,2.52,0,0,0-2.66,2.08H29Z"/><path class="cls-10" d="M41,95.35a5,5,0,0,1,3.68,1.42V95.58h4.17v17.66H44.65v-5.77A5.32,5.32,0,0,1,41,108.82c-3.55,0-6-2.81-6-6.71S37.42,95.35,41,95.35Zm3.68,8.92V99.92A3.82,3.82,0,0,0,42.17,99a3.11,3.11,0,0,0,0,6.21A3.94,3.94,0,0,0,44.65,104.27Z"/><path class="cls-10" d="M65.39,95.58v8.54c0,.65.12,1.19.75,1.19A3.13,3.13,0,0,0,67.4,105l.15,3.3a8.2,8.2,0,0,1-3.1.55,2.78,2.78,0,0,1-2.91-1.69,5.54,5.54,0,0,1-4.27,1.69c-3.36,0-4.77-2.41-4.77-5.74v-7.5h4.17v6.9c0,1.72.5,2.54,2.19,2.54a2.75,2.75,0,0,0,2.36-1.27V95.58Z"/><path class="cls-10" d="M82.06,107.15a8.8,8.8,0,0,1-5.52,1.77c-4.89,0-7.13-3-7.13-6.81a6.62,6.62,0,0,1,6.91-6.88c4,0,5.84,2.43,5.84,5.41a11,11,0,0,1-.28,2.49H73.56a2.91,2.91,0,0,0,3.23,2.48,7,7,0,0,0,3.73-1.24Zm-3.53-7c0-1-.7-1.79-2.24-1.79a2.5,2.5,0,0,0-2.65,2.08h4.89Z"/><path class="cls-10" d="M89.43,95.58V97a5.33,5.33,0,0,1,3.95-1.67c3.36,0,4.77,2.56,4.77,5.74v3c0,.65.15,1.19.8,1.19a3.26,3.26,0,0,0,1.26-.34l.13,3.3a8.24,8.24,0,0,1-3.08.55c-2.09,0-3.28-1-3.28-3.68v-3.35c0-1.67-.77-2.59-2.19-2.59a2.77,2.77,0,0,0-2.36,1.62v7.75H85.26v-13Zm-2.36-3.16A3.44,3.44,0,0,1,90,90.19c1.79,0,2.74,1.44,3.88,1.44a1.93,1.93,0,0,0,1.69-1.1l1.19,1.37c-.72,1.42-1.66,2.24-2.91,2.24-1.61,0-2.8-1.42-3.82-1.42a2.06,2.06,0,0,0-1.76,1.09Z"/><path class="cls-10" d="M108.86,95.23a6.85,6.85,0,1,1-7,6.88A6.75,6.75,0,0,1,108.86,95.23Zm0,9.91a3.06,3.06,0,1,0-3-3A2.93,2.93,0,0,0,108.86,105.14Z"/><path class="cls-10" d="M127.78,99.63a8.62,8.62,0,0,0-3.87-1c-.85,0-1.57.25-1.57.87s.33.67,1.07.87l2.31.62c2.36.65,3.11,1.91,3.11,3.68,0,2.51-2,4.2-5.42,4.2a11.85,11.85,0,0,1-5.12-1.12l.77-3.26a9.51,9.51,0,0,0,4,1.22c1,0,1.54-.2,1.54-.77s-.49-.64-1.31-.87l-2.07-.57c-2.11-.62-3.15-1.79-3.15-3.75,0-2.58,2.26-4.35,5.89-4.35a13.44,13.44,0,0,1,4.84,1Z"/><path class="cls-10" d="M171.29,107.15a8.77,8.77,0,0,1-5.51,1.77c-4.9,0-7.13-3-7.13-6.81a6.62,6.62,0,0,1,6.9-6.88c3.95,0,5.84,2.43,5.84,5.41a11.12,11.12,0,0,1-.27,2.49H162.8c.24,1.51,1.31,2.48,3.23,2.48a7,7,0,0,0,3.72-1.24Zm-3.53-7c0-1-.69-1.79-2.23-1.79a2.52,2.52,0,0,0-2.66,2.08h4.89Z"/><path class="cls-10" d="M179.71,95.35a5.12,5.12,0,0,1,3.7,1.32V95.58h4.17v11.2c0,4.5-3,6.71-6.83,6.71a11.59,11.59,0,0,1-5.29-1.25l.87-3.32a8.58,8.58,0,0,0,4.2,1.19c1.54,0,2.88-.57,2.88-2.46v-1.07a5.48,5.48,0,0,1-3.7,1.24,6.24,6.24,0,0,1,0-12.47Zm1.19,8.85a3.83,3.83,0,0,0,2.51-1V100a4,4,0,0,0-2.51-1c-1.81,0-2.93,1-2.93,2.63S179.11,104.2,180.9,104.2Z"/><path class="cls-10" d="M197.54,95.23a6.85,6.85,0,1,1-7,6.88A6.75,6.75,0,0,1,197.54,95.23Zm0,9.91a3.06,3.06,0,1,0-2.95-3A2.93,2.93,0,0,0,197.54,105.14Z"/><path class="cls-10" d="M219.43,107.13a9.11,9.11,0,0,1-5.57,1.79c-4.89,0-7.1-2.91-7.1-6.81a6.57,6.57,0,0,1,6.88-6.88c3.85,0,5.84,2.11,6,5.17l-3.7.82c-.1-1.45-.67-2.34-2.24-2.34s-2.6,1.32-2.6,3.11a3,3,0,0,0,3.3,3.27,6.21,6.21,0,0,0,3.48-1.36Z"/><path class="cls-10" d="M224.54,90c1.34,0,2.24.49,2.24,1.89s-.9,1.88-2.24,1.88-2.28-.49-2.28-1.88S223.18,90,224.54,90Zm2.06,14.08c0,.65.13,1.19.8,1.19a2.75,2.75,0,0,0,1.22-.34l.17,3.3a8.36,8.36,0,0,1-3.1.55c-2.07,0-3.26-1-3.26-3.68V95.58h4.17Z"/><path class="cls-10" d="M237.63,95.23a6.85,6.85,0,1,1-7,6.88A6.75,6.75,0,0,1,237.63,95.23Zm0,9.91a3.06,3.06,0,1,0-2.95-3A2.93,2.93,0,0,0,237.63,105.14Z"/><path class="cls-10" d="M256.56,99.63a8.69,8.69,0,0,0-3.88-1c-.84,0-1.56.25-1.56.87s.32.67,1.07.87l2.31.62c2.36.65,3.1,1.91,3.1,3.68,0,2.51-2,4.2-5.41,4.2a11.77,11.77,0,0,1-5.12-1.12l.77-3.26a9.43,9.43,0,0,0,4,1.22c1,0,1.54-.2,1.54-.77s-.5-.64-1.32-.87l-2.06-.57c-2.11-.62-3.15-1.79-3.15-3.75,0-2.58,2.26-4.35,5.88-4.35a13.45,13.45,0,0,1,4.85,1Z"/><path class="cls-10" d="M143.51,98v10.26h-4.17V91.38H143l8.49,10.26V91.38h4.17v16.89H152Z"/></g></g></g></svg>