<svg id="Capa_1" data-name="Capa 1" xmlns="http://www.w3.org/2000/svg" viewBox="0 0 837.3 217.8"><defs><style>.cls-1{fill:#706f6f;}.cls-2{fill:#67c5d7;}.cls-3{fill:none;}.cls-4{fill:#ed5a21;}.cls-5{fill:#026838;}.cls-6{fill:#e70088;}.cls-7{fill:#68c0cd;}.cls-8{fill:#e1bc26;}.cls-9{fill:#8f268b;}</style></defs><path class="cls-1" d="M14.94,107.17q-8,8.1-8,20.35t8,20.36q8,8.12,20.11,8.12,14.24,0,23.19-9.46l3.39,4.88q-10.16,11-26.58,11-15,0-25-10T0,127.52q0-14.83,10-24.83t25-10q16.43,0,26.58,10.95l-3.39,4.88q-9-9.47-23.19-9.46Q22.9,99.05,14.94,107.17Z"/><path class="cls-1" d="M76,94.47q0-4.27,4.58-4.28,4.38,0,4.38,4.28c0,2.86-1.46,4.28-4.38,4.28S76,97.33,76,94.47Zm1.1,66.9V109.3h6.77v52.07Z"/><path class="cls-1" d="M150,161.37h-6.77v-9.75q-6.16,10.65-19.81,10.65-10.15,0-15.48-6.37t-5.33-16.63v-30h6.77v29.08q0,8,4,12.74t11.89,4.78a18.13,18.13,0,0,0,11.6-3.74,17.89,17.89,0,0,0,6.32-9.4V109.3H150Z"/><path class="cls-1" d="M166.06,135.29q0-11.85,7-19.36t18.47-7.52a24.18,24.18,0,0,1,17.72,7.37V90.69H216v70.68h-6.77V154.8a23.43,23.43,0,0,1-17.72,7.57q-11.46,0-18.47-7.57T166.06,135.29Zm7,0q0,9.36,5.52,15.18t14.59,5.83a21.23,21.23,0,0,0,9.21-2.05,20.73,20.73,0,0,0,6.92-5V121.85a23.71,23.71,0,0,0-7.07-5.23,20.12,20.12,0,0,0-9.06-2.14q-9.06,0-14.59,5.78T173,135.29Z"/><path class="cls-1" d="M237.44,118l-1.29-6a43.23,43.23,0,0,1,18.11-3.58q9.87,0,14.89,5.13t5,14v33.85H267.4V155.1a24.74,24.74,0,0,1-17.91,7.27q-8.48,0-13.44-4.28a14.47,14.47,0,0,1-5-11.55q0-9.16,7-13.79t18.41-4.63a43,43,0,0,1,10.95,1.3v-1.6q0-13.44-13.63-13.44A36.8,36.8,0,0,0,237.44,118Zm.4,28a9.61,9.61,0,0,0,3.63,8q3.63,2.83,9.81,2.83a22.81,22.81,0,0,0,16.12-6.67V134.49a38.76,38.76,0,0,0-9.75-1.19q-9,0-14.39,3.13A10.28,10.28,0,0,0,237.84,145.94Z"/><path class="cls-1" d="M289.71,135.29q0-11.85,7-19.36t18.47-7.52a24.17,24.17,0,0,1,17.72,7.37V90.69h6.77v70.68h-6.77V154.8a23.41,23.41,0,0,1-17.72,7.57q-11.44,0-18.47-7.57T289.71,135.29Zm7,0q0,9.36,5.53,15.18t14.58,5.83a21.17,21.17,0,0,0,9.21-2.05,20.53,20.53,0,0,0,6.92-5V121.85a23.59,23.59,0,0,0-7.07-5.23,20.06,20.06,0,0,0-9.06-2.14q-9.06,0-14.58,5.78T296.67,135.29Z"/><path class="cls-2" d="M664.38,161.37H645.27V155.6a20.3,20.3,0,0,1-15.73,6.67q-10,0-14.84-6.37t-4.87-16.63v-30h19.11V136q0,8.76,7.57,8.76,5.87,0,8.76-4.28V109.3h19.11Z"/><path class="cls-2" d="M677.72,109.3h19.12v45.4a31.78,31.78,0,0,1-2.25,12.35,25.2,25.2,0,0,1-5.27,8.36A38.31,38.31,0,0,1,681.9,181l-11.45-11.15q7.27-5.27,7.27-13.73ZM677,95.37q0-8.46,10.36-8.47t10.25,8.47q0,8.46-10.25,8.46T677,95.37Z"/><path class="cls-2" d="M751,143.45l7.07,12.25q-8.65,7.06-22.4,7.07-14.13,0-21.35-7.47t-7.22-19.81q0-12,7.62-19.81t20.06-7.77q11.34,0,17.47,6.17a21.17,21.17,0,0,1,6.12,15.53,35.31,35.31,0,0,1-1.1,9.86H725.51a9.8,9.8,0,0,0,3.68,6.22,12.73,12.73,0,0,0,8.06,2.34,22.83,22.83,0,0,0,7.42-1.39A21.69,21.69,0,0,0,751,143.45Zm-8.16-14.33v-.9a6.23,6.23,0,0,0-2-4.88,8.56,8.56,0,0,0-5.88-1.79,9.25,9.25,0,0,0-6.22,2.09,8.6,8.6,0,0,0-2.93,5.48Z"/><path class="cls-2" d="M769,161.37V109.3h19.12V118q5.07-9.56,14.43-9.56a18,18,0,0,1,9.66,2.59l-4.88,16.92a21.57,21.57,0,0,0-9-2,10.75,10.75,0,0,0-6.62,2,9.54,9.54,0,0,0-3.63,5.23v28.17Z"/><polygon class="cls-3" points="471.96 78.15 480.29 66.13 463.63 66.13 471.96 78.15"/><rect class="cls-4" y="32.07" width="137.89" height="34.06"/><rect class="cls-5" x="137.93" y="32.07" width="136.34" height="34.06"/><rect class="cls-5" x="137.89" y="32.07" width="0.04" height="34.06"/><rect class="cls-6" x="582.47" y="32.07" width="100.94" height="34.06"/><rect class="cls-2" x="683.44" y="32.07" width="153.86" height="34.06"/><rect class="cls-7" x="683.41" y="32.07" width="0.04" height="34.06"/><polygon class="cls-2" points="420.51 32.07 440.04 32.07 417.83 0 361.14 0 361.14 32.07 414.26 32.07 420.51 32.07"/><polygon class="cls-8" points="440.04 32.07 420.51 32.07 420.51 66.13 463.63 66.13 480.29 66.13 503.88 32.07 440.04 32.07"/><polygon class="cls-2" points="526.09 0 503.88 32.07 480.29 66.13 471.96 78.15 463.63 66.13 420.51 66.13 414.26 66.13 361.14 66.13 361.14 217.8 425.2 217.8 425.2 106.34 466.83 169.12 476.76 169.12 518.4 106.34 518.4 217.8 582.47 217.8 582.47 66.13 582.47 32.07 582.47 0 526.09 0"/><rect class="cls-9" x="274.27" y="32.07" width="0.04" height="34.06"/><polygon class="cls-9" points="414.26 32.07 361.14 32.07 274.31 32.07 274.31 66.13 361.14 66.13 414.26 66.13 420.51 66.13 420.51 32.07 414.26 32.07"/></svg>